<svg xmlns="http://www.w3.org/2000/svg" xmlns:xlink="http://www.w3.org/1999/xlink" width="719" height="721" xml:space="preserve" overflow="hidden"><metadata><rdf:RDF xmlns:rdf="http://www.w3.org/1999/02/22-rdf-syntax-ns#" xmlns:dc="http://purl.org/dc/elements/1.1/"><rdf:Description><dc:creator>RealFaviconGenerator</dc:creator><dc:source>https://realfavicongenerator.net</dc:source></rdf:Description></rdf:RDF></metadata><g transform="translate(430 73)"><g><g><g><g><path d="M330.857 568.114 657.257 2.4 983.657 568.114Z" stroke="#000000" stroke-width="2.05714" stroke-linecap="butt" stroke-linejoin="miter" stroke-miterlimit="8" stroke-opacity="1" fill="#000000" fill-rule="evenodd" fill-opacity="1" transform="matrix(1.00052 0 0 1 -727.754 2.42857)"></path><path d="M468.686 380.229C468.686 276.084 553.112 191.657 657.257 191.657 761.403 191.657 845.829 276.084 845.829 380.229 845.829 484.374 761.403 568.8 657.257 568.8 553.112 568.8 468.686 484.374 468.686 380.229Z" stroke="#FFFFFF" stroke-width="2.05714" stroke-linecap="butt" stroke-linejoin="miter" stroke-miterlimit="8" stroke-opacity="1" fill="#FFFFFF" fill-rule="evenodd" fill-opacity="1" transform="matrix(1.00052 0 0 1 -727.754 2.42857)"></path><path d="M631.886 285.257C631.886 181.301 716.311 97.0286 820.457 97.0286 924.603 97.0286 1009.03 181.301 1009.03 285.257 1009.03 389.213 924.603 473.486 820.457 473.486 716.311 473.486 631.886 389.213 631.886 285.257Z" stroke="#000000" stroke-width="2.05714" stroke-linecap="butt" stroke-linejoin="miter" stroke-miterlimit="8" stroke-opacity="1" fill="#000000" fill-rule="evenodd" fill-opacity="1" transform="matrix(1.00052 0 0 1 -727.754 2.42857)"></path></g></g></g></g></g></svg>