<svg width="816" height="331" xmlns="http://www.w3.org/2000/svg" xmlns:xlink="http://www.w3.org/1999/xlink" xml:space="preserve" overflow="hidden"><g transform="translate(-232 -194)"><g><g><g><g><g><g><path d="M271.841 35.3264 1083.49 35.3264 1083.49 363.603 271.841 363.603Z" fill="#FFFFFF" fill-rule="nonzero" fill-opacity="1" transform="matrix(1.00324 0 0 1 -39.4237 160.535)"/><path d="M431.456 85.2003C433.933 85.7991 436.41 86.3984 437.513 85.7991 438.62 85.2003 437.754 81.5565 438.09 81.6065 438.426 81.656 439.15 88.6442 439.533 86.0985 439.917 83.5529 440.253 65.1841 440.399 66.3322 440.541 67.4803 440.158 92.6378 440.399 92.9872 440.64 93.3366 441.601 65.8828 441.842 68.4285 442.084 70.9741 441.601 109.459 441.842 108.261 442.084 107.063 442.95 61.1909 443.286 61.2408 443.622 61.2908 443.574 108.261 443.863 108.561 444.152 108.86 444.776 64.6847 445.013 63.0378 445.254 61.3903 445.065 96.8804 445.302 98.6773 445.543 100.474 446.168 73.8196 446.456 73.8196 446.745 73.8196 446.844 100.325 447.034 98.6773 447.228 97.0303 447.37 63.6366 447.611 63.936 447.852 64.2358 448.188 99.0767 448.477 100.474 448.766 101.872 449.102 71.6234 449.343 72.3221 449.584 73.0209 449.679 104.517 449.92 104.667 450.161 104.817 450.545 73.2703 450.786 73.2204 451.027 73.1704 451.075 108.461 451.363 104.368 451.652 100.275 452.178 44.7684 452.518 48.6621 452.854 52.5553 453.091 126.93 453.38 127.729 453.668 128.527 453.957 57.7466 454.245 53.454 454.534 49.161 454.728 98.8772 455.111 101.972 455.499 105.067 456.124 73.9191 456.555 72.0223 456.99 70.1259 457.084 88.944 457.709 90.591 458.334 92.2384 459.777 81.9559 460.307 81.9059 460.832 81.8559 460.496 90.4415 460.884 90.2916 461.268 90.1417 461.987 81.2067 462.612 81.0072 463.236 80.8078 464.055 88.6942 464.632 89.0935 465.21 89.4929 465.498 83.7528 466.075 83.4034 466.653 83.054 467.471 86.9972 468.096 86.9972 468.721 86.9972 469.345 83.4034 469.828 83.4034 470.306 83.4034 470.452 87.0472 470.978 86.9972 471.508 86.9472 472.52 83.054 472.999 83.1036 473.481 83.1535 473.481 87.0972 473.864 87.2966 474.248 87.4965 474.95 84.2905 475.308 84.3017 475.665 84.3128 475.773 87.3156 476.01 87.3634 476.243 87.4112 476.454 84.7191 476.721 84.589 476.988 84.4585 477.078 86.3838 477.613 86.5811 478.142 86.7788 479.56 85.7591 479.909 85.7742 480.258 85.7897 479.668 86.7857 479.702 86.6728 479.736 86.5599 480.085 85.1116 480.116 85.0961 480.146 85.081 479.728 86.5315 479.887 86.5811 480.047 86.631 480.783 85.3675 481.063 85.3959 481.348 85.4243 481.081 86.7973 481.576 86.7517 482.076 86.706 479.142 85.3817 484.049 85.121 488.96 84.8604 508.635 85.1654 511.039 85.1878 513.447 85.2098 512.155 84.5675 512.319 84.7842 512.487 85.0013 511.935 86.5703 512.039 86.4897 512.142 86.4092 512.62 84.4167 512.939 84.3017 513.262 84.1866 513.555 85.8491 513.964 85.7991 514.378 85.7492 514.977 83.6029 515.407 84.0022 515.843 84.4016 516.273 88.5947 516.562 88.1953 516.851 87.7959 516.898 81.3566 517.139 81.6065 517.381 81.8559 517.669 89.6428 518.005 89.6928 518.341 89.7423 518.919 81.5066 519.16 81.9059 519.401 82.3053 519.255 92.5379 519.448 92.0885 519.638 91.6392 520.073 79.1104 520.314 79.2103 520.551 79.3103 520.793 93.2866 520.892 92.6878 520.986 92.0885 520.793 75.4166 520.892 75.6165 520.986 75.816 521.18 93.4361 521.469 93.8854 521.758 94.3348 522.244 76.2653 522.619 78.3117 522.998 80.3585 523.477 111.556 523.718 106.165 523.959 100.774 523.86 43.3709 524.062 45.9665 524.265 48.5621 524.687 119.093 524.928 121.739 525.17 124.384 525.217 66.7315 525.506 61.8397 525.794 56.9478 526.324 89.9922 526.66 92.3879 526.996 94.7841 527.19 76.4153 527.526 76.2154 527.862 76.0159 528.345 90.3416 528.681 91.1903 529.017 92.0386 529.206 82.1054 529.547 81.3067 529.883 80.5084 530.313 86.1485 530.697 86.3984 531.085 86.6478 531.563 82.5047 531.851 82.8042 532.14 83.1036 532.187 89.2934 532.429 88.1953 532.67 87.0972 532.959 75.9659 533.295 76.2154 533.631 76.4648 533.967 88.5947 534.449 89.6928 534.932 90.7909 535.604 83.3534 536.181 82.8042 536.758 82.2553 537.383 86.0985 537.913 86.3984 538.438 86.6978 539.016 84.5511 539.352 84.6011 539.692 84.651 539.692 87.0472 539.929 86.6978 540.17 86.3484 540.269 82.4048 540.795 82.5047 541.325 82.6047 542.527 87.1471 543.104 87.2966 543.681 87.4466 543.729 83.5029 544.259 83.4034 544.789 83.3035 545.702 86.4979 546.279 86.6978 546.857 86.8973 546.951 84.9009 547.718 84.6011 548.489 84.3017 549.786 84.9009 550.893 84.9009L554.667 84.3236" stroke="#215F9A" stroke-width="1.29243" stroke-linecap="butt" stroke-linejoin="miter" stroke-miterlimit="8" stroke-opacity="1" fill="none" fill-rule="evenodd" transform="matrix(1.00324 0 0 1 -39.4237 160.535)"/><text fill="#000000" fill-opacity="1" font-family="Times New Roman,Times New Roman_MSFontService,sans-serif" font-style="normal" font-variant="normal" font-weight="700" font-stretch="normal" font-size="28" text-anchor="start" direction="ltr" writing-mode="lr-tb" unicode-bidi="normal" text-decoration="none" transform="matrix(0.432203 0 0 0.430809 419.736 298)">Medical Data</text><path d="M491.554 142.598 491.554 153.021 488.969 153.021 488.969 142.598ZM494.138 151.729 490.261 159.483 486.384 151.729Z" fill="#000000" fill-rule="nonzero" fill-opacity="1" transform="matrix(1.00324 0 0 1 -39.4237 160.535)"/><path d="M346.371 184.602C346.371 175.68 353.604 168.446 362.527 168.446L469.367 168.446C478.289 168.446 485.522 175.68 485.522 184.602L485.522 249.223C485.522 258.145 478.289 265.379 469.367 265.379L362.527 265.379C353.604 265.379 346.371 258.145 346.371 249.223Z" fill="#F2CFEE" fill-rule="evenodd" fill-opacity="1" transform="matrix(1.00324 0 0 1 -39.4237 160.535)"/><path d="M368.557 194.295C368.557 189.18 372.608 185.033 377.604 185.033 382.601 185.033 386.651 189.18 386.651 194.295 386.651 199.41 382.601 203.557 377.604 203.557 372.608 203.557 368.557 199.41 368.557 194.295Z" stroke="#042433" stroke-width="1.29243" stroke-linecap="butt" stroke-linejoin="miter" stroke-miterlimit="8" stroke-opacity="1" fill="#FFFFFF" fill-rule="evenodd" fill-opacity="1" transform="matrix(1.00324 0 0 1 -39.4237 160.535)"/><path d="M367.696 221.867C367.696 216.751 371.843 212.604 376.958 212.604 382.074 212.604 386.221 216.751 386.221 221.867 386.221 226.982 382.074 231.129 376.958 231.129 371.843 231.129 367.696 226.982 367.696 221.867Z" stroke="#042433" stroke-width="1.29243" stroke-linecap="butt" stroke-linejoin="miter" stroke-miterlimit="8" stroke-opacity="1" fill="#FFFFFF" fill-rule="evenodd" fill-opacity="1" transform="matrix(1.00324 0 0 1 -39.4237 160.535)"/><path d="M404.315 180.294C404.315 175.297 408.462 171.247 413.577 171.247 418.692 171.247 422.839 175.297 422.839 180.294 422.839 185.29 418.692 189.341 413.577 189.341 408.462 189.341 404.315 185.29 404.315 180.294Z" stroke="#042433" stroke-width="1.29243" stroke-linecap="butt" stroke-linejoin="miter" stroke-miterlimit="8" stroke-opacity="1" fill="#FFFFFF" fill-rule="evenodd" fill-opacity="1" transform="matrix(1.00324 0 0 1 -39.4237 160.535)"/><path d="M404.315 236.084C404.315 230.968 408.462 226.821 413.577 226.821 418.692 226.821 422.839 230.968 422.839 236.084 422.839 241.199 418.692 245.346 413.577 245.346 408.462 245.346 404.315 241.199 404.315 236.084Z" stroke="#042433" stroke-width="1.29243" stroke-linecap="butt" stroke-linejoin="miter" stroke-miterlimit="8" stroke-opacity="1" fill="#FFFFFF" fill-rule="evenodd" fill-opacity="1" transform="matrix(1.00324 0 0 1 -39.4237 160.535)"/><path d="M404.315 208.081C404.315 202.966 408.462 198.819 413.577 198.819 418.692 198.819 422.839 202.966 422.839 208.081 422.839 213.196 418.692 217.343 413.577 217.343 408.462 217.343 404.315 213.196 404.315 208.081Z" stroke="#042433" stroke-width="1.29243" stroke-linecap="butt" stroke-linejoin="miter" stroke-miterlimit="8" stroke-opacity="1" fill="#FFFFFF" fill-rule="evenodd" fill-opacity="1" transform="matrix(1.00324 0 0 1 -39.4237 160.535)"/><path d="M440.503 194.295C440.503 189.18 444.552 185.033 449.55 185.033 454.547 185.033 458.597 189.18 458.597 194.295 458.597 199.41 454.547 203.557 449.55 203.557 444.552 203.557 440.503 199.41 440.503 194.295Z" stroke="#042433" stroke-width="1.29243" stroke-linecap="butt" stroke-linejoin="miter" stroke-miterlimit="8" stroke-opacity="1" fill="#FFFFFF" fill-rule="evenodd" fill-opacity="1" transform="matrix(1.00324 0 0 1 -39.4237 160.535)"/><path d="M386.651 194.08 404.352 207.887" stroke="#000000" stroke-width="1.29243" stroke-linecap="butt" stroke-linejoin="miter" stroke-miterlimit="8" stroke-opacity="1" fill="none" fill-rule="evenodd" transform="matrix(1.00324 0 0 1 -39.4237 160.535)"/><path d="M0 0 17.7006 13.8379" stroke="#000000" stroke-width="1.29243" stroke-linecap="butt" stroke-linejoin="miter" stroke-miterlimit="8" stroke-opacity="1" fill="none" fill-rule="evenodd" transform="matrix(1.00324 0 0 -1 348.479 354.667)"/><path d="M386.651 194.08 404.352 235.839" stroke="#000000" stroke-width="1.29243" stroke-linecap="butt" stroke-linejoin="miter" stroke-miterlimit="8" stroke-opacity="1" fill="none" fill-rule="evenodd" transform="matrix(1.00324 0 0 1 -39.4237 160.535)"/><path d="M0 0 18.3179 41.3831" stroke="#000000" stroke-width="1.29243" stroke-linecap="butt" stroke-linejoin="miter" stroke-miterlimit="8" stroke-opacity="1" fill="none" fill-rule="evenodd" transform="matrix(1.00324 0 0 -1 348.047 382.212)"/><path d="M0 0 18.3179 13.738" stroke="#000000" stroke-width="1.29243" stroke-linecap="butt" stroke-linejoin="miter" stroke-miterlimit="8" stroke-opacity="1" fill="none" fill-rule="evenodd" transform="matrix(1.00324 0 0 -1 348.047 382.139)"/><path d="M386.221 221.651 404.539 235.866" stroke="#000000" stroke-width="1.29243" stroke-linecap="butt" stroke-linejoin="miter" stroke-miterlimit="8" stroke-opacity="1" fill="none" fill-rule="evenodd" transform="matrix(1.00324 0 0 1 -39.4237 160.535)"/><path d="M422.839 180.294 440.442 194.132" stroke="#000000" stroke-width="1.29243" stroke-linecap="butt" stroke-linejoin="miter" stroke-miterlimit="8" stroke-opacity="1" fill="none" fill-rule="evenodd" transform="matrix(1.00324 0 0 1 -39.4237 160.535)"/><path d="M0 0 17.6033 13.8071" stroke="#000000" stroke-width="1.29243" stroke-linecap="butt" stroke-linejoin="miter" stroke-miterlimit="8" stroke-opacity="1" fill="none" fill-rule="evenodd" transform="matrix(1.00324 0 0 -1 384.784 368.422)"/><path d="M0 0 17.6033 41.7594" stroke="#000000" stroke-width="1.29243" stroke-linecap="butt" stroke-linejoin="miter" stroke-miterlimit="8" stroke-opacity="1" fill="none" fill-rule="evenodd" transform="matrix(1.00324 0 0 -1 384.784 396.374)"/><path d="M440.503 221.867C440.503 216.751 444.552 212.604 449.55 212.604 454.547 212.604 458.597 216.751 458.597 221.867 458.597 226.982 454.547 231.129 449.55 231.129 444.552 231.129 440.503 226.982 440.503 221.867Z" stroke="#042433" stroke-width="1.29243" stroke-linecap="butt" stroke-linejoin="miter" stroke-miterlimit="8" stroke-opacity="1" fill="#FFFFFF" fill-rule="evenodd" fill-opacity="1" transform="matrix(1.00324 0 0 1 -39.4237 160.535)"/><path d="M422.839 180.294 440.442 221.677" stroke="#000000" stroke-width="1.29243" stroke-linecap="butt" stroke-linejoin="miter" stroke-miterlimit="8" stroke-opacity="1" fill="none" fill-rule="evenodd" transform="matrix(1.00324 0 0 1 -39.4237 160.535)"/><path d="M422.839 207.866 440.442 221.604" stroke="#000000" stroke-width="1.29243" stroke-linecap="butt" stroke-linejoin="miter" stroke-miterlimit="8" stroke-opacity="1" fill="none" fill-rule="evenodd" transform="matrix(1.00324 0 0 1 -39.4237 160.535)"/><path d="M0 0 17.6033 14.2143" stroke="#000000" stroke-width="1.29243" stroke-linecap="butt" stroke-linejoin="miter" stroke-miterlimit="8" stroke-opacity="1" fill="none" fill-rule="evenodd" transform="matrix(1.00324 0 0 -1 384.784 396.401)"/><text fill="#000000" fill-opacity="1" font-family="Times New Roman,Times New Roman_MSFontService,sans-serif" font-style="normal" font-variant="normal" font-weight="700" font-stretch="normal" font-size="28" text-anchor="start" direction="ltr" writing-mode="lr-tb" unicode-bidi="normal" text-decoration="none" transform="matrix(0.432203 0 0 0.430809 319.402 419)">Deep Neural Network</text><path d="M475.183 166.939C475.183 166.582 475.471 166.292 475.829 166.292L478.414 166.292C478.771 166.292 479.06 166.582 479.06 166.939L479.06 178.57C479.06 178.927 478.771 179.217 478.414 179.217L475.829 179.217C475.471 179.217 475.183 178.927 475.183 178.57Z" fill="#FFFFFF" fill-rule="evenodd" fill-opacity="1" transform="matrix(1.00324 0 0 1 -39.4237 160.535)"/><path d="M271.195 175.986C271.195 171.941 274.473 168.662 278.518 168.662L334.523 168.662C338.568 168.662 341.847 171.941 341.847 175.986L341.847 205.281C341.847 209.326 338.568 212.604 334.523 212.604L278.518 212.604C274.473 212.604 271.195 209.326 271.195 205.281Z" stroke="#FFC5C1" stroke-width="1.29243" stroke-linecap="butt" stroke-linejoin="miter" stroke-miterlimit="8" stroke-opacity="1" fill="none" fill-rule="evenodd" transform="matrix(1.00324 0 0 1 -39.4237 160.535)"/><text fill="#FD0B00" fill-opacity="1" font-family="Times New Roman,Times New Roman_MSFontService,sans-serif" font-style="normal" font-variant="normal" font-weight="700" font-stretch="normal" font-size="24" text-anchor="start" direction="ltr" writing-mode="lr-tb" unicode-bidi="normal" text-decoration="none" transform="matrix(0.432203 0 0 0.430809 248.153 343)">Requires </text><text fill="#FD0B00" fill-opacity="1" font-family="Times New Roman,Times New Roman_MSFontService,sans-serif" font-style="normal" font-variant="normal" font-weight="700" font-stretch="normal" font-size="24" text-anchor="start" direction="ltr" writing-mode="lr-tb" unicode-bidi="normal" text-decoration="none" transform="matrix(0.432203 0 0 0.430809 242.927 355)">Substantial </text><text fill="#FD0B00" fill-opacity="1" font-family="Times New Roman,Times New Roman_MSFontService,sans-serif" font-style="normal" font-variant="normal" font-weight="700" font-stretch="normal" font-size="24" text-anchor="start" direction="ltr" writing-mode="lr-tb" unicode-bidi="normal" text-decoration="none" transform="matrix(0.432203 0 0 0.430809 251.788 367)">Energy</text><path d="M485.841 179.251 477.445 164.994C477.121 164.427 476.281 164.427 475.958 164.994L467.54 179.251C467.217 179.817 467.626 180.509 468.294 180.509L476.691 180.509 485.087 180.509C485.755 180.509 486.164 179.817 485.841 179.251ZM476.044 168.348 477.337 168.348 477.337 175.687 476.044 175.687 476.044 168.348ZM476.691 178.622C476.087 178.622 475.618 178.161 475.618 177.574 475.618 176.987 476.087 176.525 476.691 176.525 477.294 176.525 477.763 176.987 477.763 177.574 477.763 178.161 477.294 178.622 476.691 178.622Z" fill="#FF0000" fill-rule="evenodd" fill-opacity="1" transform="matrix(1.00324 0 0 1 -39.4237 160.535)"/><path d="M342.709 187.187 345.725 190.849 342.709 194.51Z" stroke="#FFC5C1" stroke-width="1.29243" stroke-linecap="butt" stroke-linejoin="miter" stroke-miterlimit="8" stroke-opacity="1" fill="#FFC5C1" fill-rule="evenodd" fill-opacity="1" transform="matrix(1.00324 0 0 1 -39.4237 160.535)"/><path d="M495.431 184.171C495.431 175.249 502.664 168.016 511.586 168.016L618.427 168.016C627.349 168.016 634.582 175.249 634.582 184.171L634.582 248.792C634.582 257.715 627.349 264.948 618.427 264.948L511.586 264.948C502.664 264.948 495.431 257.715 495.431 248.792Z" fill="#F2CFEE" fill-rule="evenodd" fill-opacity="1" transform="matrix(1.00324 0 0 1 -39.4237 160.535)"/><text fill="#000000" fill-opacity="1" font-family="Times New Roman,Times New Roman_MSFontService,sans-serif" font-style="normal" font-variant="normal" font-weight="700" font-stretch="normal" font-size="28" text-anchor="start" direction="ltr" writing-mode="lr-tb" unicode-bidi="normal" text-decoration="none" transform="matrix(0.432203 0 0 0.430809 488.785 419)">HDC</text><text fill="#000000" fill-opacity="1" font-family="Times New Roman,Times New Roman_MSFontService,sans-serif" font-style="normal" font-variant="normal" font-weight="700" font-stretch="normal" font-size="28" text-anchor="start" direction="ltr" writing-mode="lr-tb" unicode-bidi="normal" text-decoration="none" transform="matrix(0.432203 0 0 0.430809 515.69 419)">-</text><text fill="#000000" fill-opacity="1" font-family="Times New Roman,Times New Roman_MSFontService,sans-serif" font-style="normal" font-variant="normal" font-weight="700" font-stretch="normal" font-size="28" text-anchor="start" direction="ltr" writing-mode="lr-tb" unicode-bidi="normal" text-decoration="none" transform="matrix(0.432203 0 0 0.430809 519.688 419)">X (Ours)</text><path d="M615.196 172.108C615.196 167.469 618.957 163.708 623.597 163.708 628.236 163.708 631.997 167.469 631.997 172.108 631.997 176.748 628.236 180.509 623.597 180.509 618.957 180.509 615.196 176.748 615.196 172.108Z" fill="#00B050" fill-rule="evenodd" fill-opacity="1" transform="matrix(1.00324 0 0 1 -39.4237 160.535)"/><path d="M628.392 168.877 621.947 174.982 618.849 171.803 617.781 172.825 621.899 177.063 622.981 176.054 629.413 169.937Z" fill="#FFFFFF" fill-rule="evenodd" fill-opacity="1" transform="matrix(1.00324 0 0 1 -39.4237 160.535)"/><path d="M639.537 175.627C639.537 171.542 642.849 168.231 646.934 168.231L702.792 168.231C706.876 168.231 710.189 171.542 710.189 175.627L710.189 205.209C710.189 209.293 706.876 212.604 702.792 212.604L646.934 212.604C642.849 212.604 639.537 209.293 639.537 205.209Z" stroke="#C1DEC1" stroke-width="1.29243" stroke-linecap="butt" stroke-linejoin="miter" stroke-miterlimit="8" stroke-opacity="1" fill="none" fill-rule="evenodd" transform="matrix(1.00324 0 0 1 -39.4237 160.535)"/><text fill="#3B7D23" fill-opacity="1" font-family="Times New Roman,Times New Roman_MSFontService,sans-serif" font-style="normal" font-variant="normal" font-weight="700" font-stretch="normal" font-size="24" text-anchor="start" direction="ltr" writing-mode="lr-tb" unicode-bidi="normal" text-decoration="none" transform="matrix(0.432203 0 0 0.430809 617.651 343)">Requires </text><text fill="#3B7D23" fill-opacity="1" font-family="Times New Roman,Times New Roman_MSFontService,sans-serif" font-style="normal" font-variant="normal" font-weight="700" font-stretch="normal" font-size="24" text-anchor="start" direction="ltr" writing-mode="lr-tb" unicode-bidi="normal" text-decoration="none" transform="matrix(0.432203 0 0 0.430809 613.398 355)">Much Less </text><text fill="#3B7D23" fill-opacity="1" font-family="Times New Roman,Times New Roman_MSFontService,sans-serif" font-style="normal" font-variant="normal" font-weight="700" font-stretch="normal" font-size="24" text-anchor="start" direction="ltr" writing-mode="lr-tb" unicode-bidi="normal" text-decoration="none" transform="matrix(0.432203 0 0 0.430809 621.286 367)">Energy</text><path d="M513.74 182.017C513.74 180.589 514.899 179.432 516.325 179.432L551.221 179.432C552.647 179.432 553.805 180.589 553.805 182.017L553.805 192.356C553.805 193.784 552.647 194.941 551.221 194.941L516.325 194.941C514.899 194.941 513.74 193.784 513.74 192.356Z" stroke="#000000" stroke-width="1.29243" stroke-linecap="butt" stroke-linejoin="miter" stroke-miterlimit="8" stroke-opacity="1" fill="#FFFFFF" fill-rule="evenodd" fill-opacity="1" transform="matrix(1.00324 0 0 1 -39.4237 160.535)"/><path d="M516.325 184.171C516.325 182.743 517.484 181.586 518.91 181.586L553.375 181.586C554.801 181.586 555.96 182.743 555.96 184.171L555.96 194.51C555.96 195.938 554.801 197.095 553.375 197.095L518.91 197.095C517.484 197.095 516.325 195.938 516.325 194.51Z" stroke="#000000" stroke-width="1.29243" stroke-linecap="butt" stroke-linejoin="miter" stroke-miterlimit="8" stroke-opacity="1" fill="#FFFFFF" fill-rule="evenodd" fill-opacity="1" transform="matrix(1.00324 0 0 1 -39.4237 160.535)"/><path d="M518.479 186.253C518.479 184.865 519.604 183.74 520.991 183.74L556.033 183.74C557.42 183.74 558.544 184.865 558.544 186.253L558.544 196.306C558.544 197.693 557.42 198.819 556.033 198.819L520.991 198.819C519.604 198.819 518.479 197.693 518.479 196.306Z" stroke="#000000" stroke-width="1.29243" stroke-linecap="butt" stroke-linejoin="miter" stroke-miterlimit="8" stroke-opacity="1" fill="#FFFFFF" fill-rule="evenodd" fill-opacity="1" transform="matrix(1.00324 0 0 1 -39.4237 160.535)"/><text fill="#000000" fill-opacity="1" font-family="Times New Roman,Times New Roman_MSFontService,sans-serif" font-style="normal" font-variant="normal" font-weight="700" font-stretch="normal" font-size="12" text-anchor="start" direction="ltr" writing-mode="lr-tb" unicode-bidi="normal" text-decoration="none" transform="matrix(0.432203 0 0 0.430809 491.776 354)">ID</text><text fill="#000000" fill-opacity="1" font-family="Times New Roman,Times New Roman_MSFontService,sans-serif" font-style="normal" font-variant="normal" font-weight="700" font-stretch="normal" font-size="12" text-anchor="start" direction="ltr" writing-mode="lr-tb" unicode-bidi="normal" text-decoration="none" transform="matrix(0.432203 0 0 0.430809 497.611 354)">-</text><text fill="#000000" fill-opacity="1" font-family="Times New Roman,Times New Roman_MSFontService,sans-serif" font-style="normal" font-variant="normal" font-weight="700" font-stretch="normal" font-size="12" text-anchor="start" direction="ltr" writing-mode="lr-tb" unicode-bidi="normal" text-decoration="none" transform="matrix(0.432203 0 0 0.430809 499.339 354)">HVs</text><path d="M570.176 182.017C570.176 180.589 571.335 179.432 572.761 179.432L607.226 179.432C608.652 179.432 609.811 180.589 609.811 182.017L609.811 192.356C609.811 193.784 608.652 194.941 607.226 194.941L572.761 194.941C571.335 194.941 570.176 193.784 570.176 192.356Z" stroke="#000000" stroke-width="1.29243" stroke-linecap="butt" stroke-linejoin="miter" stroke-miterlimit="8" stroke-opacity="1" fill="#FFFFFF" fill-rule="evenodd" fill-opacity="1" transform="matrix(1.00324 0 0 1 -39.4237 160.535)"/><path d="M572.33 184.171C572.33 182.743 573.489 181.586 574.915 181.586L609.811 181.586C611.237 181.586 612.396 182.743 612.396 184.171L612.396 194.51C612.396 195.938 611.237 197.095 609.811 197.095L574.915 197.095C573.489 197.095 572.33 195.938 572.33 194.51Z" stroke="#000000" stroke-width="1.29243" stroke-linecap="butt" stroke-linejoin="miter" stroke-miterlimit="8" stroke-opacity="1" fill="#FFFFFF" fill-rule="evenodd" fill-opacity="1" transform="matrix(1.00324 0 0 1 -39.4237 160.535)"/><path d="M574.915 186.325C574.915 184.897 576.074 183.74 577.5 183.74L611.965 183.74C613.391 183.74 614.55 184.897 614.55 186.325L614.55 196.664C614.55 198.092 613.391 199.249 611.965 199.249L577.5 199.249C576.074 199.249 574.915 198.092 574.915 196.664Z" stroke="#000000" stroke-width="1.29243" stroke-linecap="butt" stroke-linejoin="miter" stroke-miterlimit="8" stroke-opacity="1" fill="#FFFFFF" fill-rule="evenodd" fill-opacity="1" transform="matrix(1.00324 0 0 1 -39.4237 160.535)"/><text fill="#000000" fill-opacity="1" font-family="Times New Roman,Times New Roman_MSFontService,sans-serif" font-style="normal" font-variant="normal" font-weight="700" font-stretch="normal" font-size="12" text-anchor="start" direction="ltr" writing-mode="lr-tb" unicode-bidi="normal" text-decoration="none" transform="matrix(0.432203 0 0 0.430809 545.183 354)">Level</text><text fill="#000000" fill-opacity="1" font-family="Times New Roman,Times New Roman_MSFontService,sans-serif" font-style="normal" font-variant="normal" font-weight="700" font-stretch="normal" font-size="12" text-anchor="start" direction="ltr" writing-mode="lr-tb" unicode-bidi="normal" text-decoration="none" transform="matrix(0.432203 0 0 0.430809 557.177 354)">-</text><text fill="#000000" fill-opacity="1" font-family="Times New Roman,Times New Roman_MSFontService,sans-serif" font-style="normal" font-variant="normal" font-weight="700" font-stretch="normal" font-size="12" text-anchor="start" direction="ltr" writing-mode="lr-tb" unicode-bidi="normal" text-decoration="none" transform="matrix(0.432203 0 0 0.430809 558.906 354)">HVs</text><path d="M544.328 206.142C544.328 204.715 545.487 203.557 546.913 203.557L583.101 203.557C584.527 203.557 585.685 204.715 585.685 206.142L585.685 216.482C585.685 217.909 584.527 219.067 583.101 219.067L546.913 219.067C545.487 219.067 544.328 217.909 544.328 216.482Z" stroke="#000000" stroke-width="1.29243" stroke-linecap="butt" stroke-linejoin="miter" stroke-miterlimit="8" stroke-opacity="1" fill="#FFFFFF" fill-rule="evenodd" fill-opacity="1" transform="matrix(1.00324 0 0 1 -39.4237 160.535)"/><text fill="#000000" fill-opacity="1" font-family="Times New Roman,Times New Roman_MSFontService,sans-serif" font-style="normal" font-variant="normal" font-weight="700" font-stretch="normal" font-size="12" text-anchor="start" direction="ltr" writing-mode="lr-tb" unicode-bidi="normal" text-decoration="none" transform="matrix(0.432203 0 0 0.430809 514.415 374)">Sample</text><text fill="#000000" fill-opacity="1" font-family="Times New Roman,Times New Roman_MSFontService,sans-serif" font-style="normal" font-variant="normal" font-weight="700" font-stretch="normal" font-size="12" text-anchor="start" direction="ltr" writing-mode="lr-tb" unicode-bidi="normal" text-decoration="none" transform="matrix(0.432203 0 0 0.430809 530.838 374)">-</text><text fill="#000000" fill-opacity="1" font-family="Times New Roman,Times New Roman_MSFontService,sans-serif" font-style="normal" font-variant="normal" font-weight="700" font-stretch="normal" font-size="12" text-anchor="start" direction="ltr" writing-mode="lr-tb" unicode-bidi="normal" text-decoration="none" transform="matrix(0.432203 0 0 0.430809 532.567 374)">HV</text><path d="M638.244 194.51 635.228 190.633 638.244 186.756Z" stroke="#C1DEC2" stroke-width="1.29243" stroke-linecap="butt" stroke-linejoin="miter" stroke-miterlimit="8" stroke-opacity="1" fill="#C1DEC2" fill-rule="evenodd" fill-opacity="1" transform="matrix(1.00324 0 0 1 -39.4237 160.535)"/><path d="M495.689 267.301 578.853 319.686 577.474 321.873 494.311 269.488ZM579.137 316.81 583.63 324.223 575.006 323.371Z" fill="#000000" fill-rule="nonzero" fill-opacity="1" transform="matrix(1.00324 0 0 1 -39.4237 160.535)"/><path d="M0.694822-1.08977 82.8089 51.2655 81.4191 53.4449-0.694822 1.08977ZM83.1087 48.3911 87.5629 55.829 78.9398 54.9295Z" fill="#000000" fill-rule="nonzero" fill-opacity="1" transform="matrix(-1.00324 0 0 1 447.778 428.93)"/><path d="M310.183 330.503C310.183 327.132 312.915 324.399 316.286 324.399L479.848 324.399C483.222 324.399 485.953 327.132 485.953 330.503L485.953 354.915C485.953 358.286 483.222 361.018 479.848 361.018L316.286 361.018C312.915 361.018 310.183 358.286 310.183 354.915Z" fill="#DCEAF7" fill-rule="evenodd" fill-opacity="1" transform="matrix(1.00324 0 0 1 -39.4237 160.535)"/><text fill="#000000" fill-opacity="1" font-family="Times New Roman,Times New Roman_MSFontService,sans-serif" font-style="normal" font-variant="normal" font-weight="700" font-stretch="normal" font-size="28" text-anchor="start" direction="ltr" writing-mode="lr-tb" unicode-bidi="normal" text-decoration="none" transform="matrix(0.432203 0 0 0.430809 296.786 508)">No abnormally detected.</text><path d="M495.431 330.431C495.431 327.1 498.132 324.399 501.462 324.399L665.601 324.399C668.931 324.399 671.632 327.1 671.632 330.431L671.632 354.556C671.632 357.887 668.931 360.587 665.601 360.587L501.462 360.587C498.132 360.587 495.431 357.887 495.431 354.556Z" fill="#FBE3D6" fill-rule="evenodd" fill-opacity="1" transform="matrix(1.00324 0 0 1 -39.4237 160.535)"/><text fill="#000000" fill-opacity="1" font-family="Times New Roman,Times New Roman_MSFontService,sans-serif" font-style="normal" font-variant="normal" font-weight="700" font-stretch="normal" font-size="28" text-anchor="start" direction="ltr" writing-mode="lr-tb" unicode-bidi="normal" text-decoration="none" transform="matrix(0.432203 0 0 0.430809 494.041 500)">Potential … disease, </text><text fill="#000000" fill-opacity="1" font-family="Times New Roman,Times New Roman_MSFontService,sans-serif" font-style="normal" font-variant="normal" font-weight="700" font-stretch="normal" font-size="28" text-anchor="start" direction="ltr" writing-mode="lr-tb" unicode-bidi="normal" text-decoration="none" transform="matrix(0.432203 0 0 0.430809 469.245 514)">consult medical professionals.</text><path d="M496.827 321.584 494.599 317.736 494.599 317.576C494.793 312.253 490.593 307.797 485.229 307.604 479.866 307.412 475.377 311.548 475.183 316.87 475.183 317.095 475.183 317.351 475.183 317.576 475.183 320.622 476.57 323.475 478.995 325.335L478.995 333.446 489.206 333.446 489.206 329.599 490.787 329.599C492.885 329.599 494.599 327.9 494.599 325.816 494.599 325.784 494.599 325.784 494.599 325.751L494.599 323.828 496.021 323.828C496.861 323.732 497.602 322.77 496.827 321.584ZM476.635 314.369 478.414 314.369 478.414 313.087C478.056 312.831 477.992 312.317 478.25 311.965 478.509 311.612 479.026 311.548 479.383 311.804 479.736 312.061 479.801 312.574 479.543 312.927 479.512 312.991 479.448 313.055 479.383 313.087L479.383 314.369 480.676 314.369 480.676 316.614C481.029 316.87 481.093 317.383 480.835 317.736 480.577 318.089 480.06 318.153 479.706 317.896 479.349 317.64 479.284 317.127 479.543 316.774 479.577 316.71 479.642 316.646 479.706 316.614L479.706 315.331 476.346 315.331C476.441 315.011 476.505 314.69 476.635 314.369ZM485.617 319.788C485.165 319.788 484.811 319.435 484.811 318.986 484.811 318.954 484.811 318.89 484.811 318.858L483.971 318.025 482.614 319.371 482.614 321.744C482.967 322 483.032 322.513 482.774 322.866 482.515 323.219 481.998 323.283 481.645 323.026 481.287 322.77 481.223 322.257 481.481 321.904 481.516 321.84 481.58 321.776 481.645 321.744L481.645 321.423 479.478 321.423 477.961 319.66C477.509 319.692 477.121 319.371 477.087 318.922 477.057 318.474 477.38 318.089 477.832 318.057 478.285 318.025 478.672 318.345 478.703 318.794 478.703 318.858 478.703 318.954 478.703 319.019L479.93 320.461 481.645 320.461 481.645 318.986 483.291 317.351 482.291 316.325 482.291 310.522C481.934 310.266 481.869 309.752 482.127 309.4 482.386 309.047 482.903 308.983 483.26 309.24 483.614 309.496 483.678 310.009 483.42 310.362 483.39 310.426 483.325 310.49 483.26 310.522L483.26 311.484 485.845 311.484 485.845 313.728C486.199 313.985 486.263 314.498 486.005 314.851 485.746 315.203 485.229 315.267 484.876 315.011 484.518 314.754 484.454 314.241 484.712 313.889 484.747 313.824 484.811 313.76 484.876 313.728L484.876 312.446 483.26 312.446 483.26 315.941 485.522 318.185C485.552 318.185 485.587 318.185 485.617 318.185 486.069 318.185 486.427 318.537 486.427 318.986 486.427 319.435 486.069 319.788 485.617 319.788ZM489.559 313.311C489.107 313.311 488.753 312.959 488.753 312.51 488.753 312.478 488.753 312.478 488.753 312.446L487.461 311.292 487.461 308.951C487.784 309.047 488.107 309.176 488.43 309.303L488.43 310.875 489.399 311.741C489.464 311.741 489.494 311.741 489.559 311.741 490.011 311.741 490.365 312.093 490.365 312.542 490.365 312.991 490.011 313.311 489.559 313.311Z" fill="#000000" fill-rule="evenodd" fill-opacity="1" transform="matrix(1.00324 0 0 1 -39.4237 160.535)"/><path d="M682.505 321.584 680.278 317.736 680.278 317.576C680.472 312.253 676.272 307.797 670.908 307.604 665.545 307.412 661.055 311.548 660.862 316.87 660.862 317.095 660.862 317.351 660.862 317.576 660.862 320.622 662.249 323.475 664.674 325.335L664.674 333.446 674.885 333.446 674.885 329.599 676.466 329.599C678.564 329.599 680.278 327.9 680.278 325.816 680.278 325.784 680.278 325.784 680.278 325.751L680.278 323.828 681.7 323.828C682.54 323.732 683.281 322.77 682.505 321.584ZM662.313 314.369 664.093 314.369 664.093 313.087C663.735 312.831 663.671 312.317 663.929 311.965 664.187 311.612 664.704 311.548 665.062 311.804 665.415 312.061 665.48 312.574 665.221 312.927 665.191 312.991 665.127 313.055 665.062 313.087L665.062 314.369 666.354 314.369 666.354 316.614C666.708 316.87 666.772 317.383 666.514 317.736 666.255 318.089 665.738 318.153 665.385 317.896 665.028 317.64 664.963 317.127 665.221 316.774 665.256 316.71 665.32 316.646 665.385 316.614L665.385 315.331 662.025 315.331C662.12 315.011 662.184 314.69 662.313 314.369ZM671.296 319.788C670.844 319.788 670.49 319.435 670.49 318.986 670.49 318.954 670.49 318.89 670.49 318.858L669.65 318.025 668.293 319.371 668.293 321.744C668.646 322 668.711 322.513 668.453 322.866 668.194 323.219 667.677 323.283 667.324 323.026 666.966 322.77 666.902 322.257 667.16 321.904 667.195 321.84 667.259 321.776 667.324 321.744L667.324 321.423 665.157 321.423 663.64 319.66C663.188 319.692 662.8 319.371 662.766 318.922 662.736 318.474 663.059 318.089 663.511 318.057 663.963 318.025 664.351 318.345 664.381 318.794 664.381 318.858 664.381 318.954 664.381 319.019L665.609 320.461 667.324 320.461 667.324 318.986 668.969 317.351 667.97 316.325 667.97 310.522C667.612 310.266 667.548 309.752 667.806 309.4 668.065 309.047 668.582 308.983 668.939 309.24 669.293 309.496 669.357 310.009 669.099 310.362 669.069 310.426 669.004 310.49 668.939 310.522L668.939 311.484 671.524 311.484 671.524 313.728C671.877 313.985 671.942 314.498 671.684 314.851 671.425 315.203 670.908 315.267 670.555 315.011 670.197 314.754 670.133 314.241 670.391 313.889 670.426 313.824 670.49 313.76 670.555 313.728L670.555 312.446 668.939 312.446 668.939 315.941 671.201 318.185C671.231 318.185 671.266 318.185 671.296 318.185 671.748 318.185 672.106 318.537 672.106 318.986 672.106 319.435 671.748 319.788 671.296 319.788ZM675.238 313.311C674.785 313.311 674.432 312.959 674.432 312.51 674.432 312.478 674.432 312.478 674.432 312.446L673.14 311.292 673.14 308.951C673.463 309.047 673.786 309.176 674.109 309.303L674.109 310.875 675.078 311.741C675.143 311.741 675.173 311.741 675.238 311.741 675.69 311.741 676.043 312.093 676.043 312.542 676.043 312.991 675.69 313.311 675.238 313.311Z" fill="#000000" fill-rule="evenodd" fill-opacity="1" transform="matrix(1.00324 0 0 1 -39.4237 160.535)"/><path d="M791.397 93.0548 791.397 305.013M808.198 93.0548 808.198 305.013M820.261 93.0548 820.261 305.013M829.308 93.0548 829.308 305.013M836.632 93.0548 836.632 305.013M843.094 93.0548 843.094 305.013M848.695 93.0548 848.695 305.013M853.433 93.0548 853.433 305.013M886.606 93.0548 886.606 305.013M903.407 93.0548 903.407 305.013M915.47 93.0548 915.47 305.013M924.517 93.0548 924.517 305.013M932.272 93.0548 932.272 305.013M938.303 93.0548 938.303 305.013M943.903 93.0548 943.903 305.013M949.073 93.0548 949.073 305.013M981.815 93.0548 981.815 305.013M998.616 93.0548 998.616 305.013M1010.68 93.0548 1010.68 305.013M1019.73 93.0548 1019.73 305.013M1027.48 93.0548 1027.48 305.013M1033.94 93.0548 1033.94 305.013M1039.11 93.0548 1039.11 305.013M1044.28 93.0548 1044.28 305.013" stroke="#F2F2F2" stroke-width="0.646214" stroke-linecap="butt" stroke-linejoin="round" stroke-miterlimit="10" stroke-opacity="1" fill="none" fill-rule="nonzero" transform="matrix(1.00324 0 0 1 -39.4237 160.535)"/><path d="M762.533 93.0548 762.533 305.013M858.172 93.0548 858.172 305.013M953.381 93.0548 953.381 305.013" stroke="#D9D9D9" stroke-width="0.646214" stroke-linecap="butt" stroke-linejoin="round" stroke-miterlimit="10" stroke-opacity="1" fill="none" fill-rule="nonzero" transform="matrix(1.00324 0 0 1 -39.4237 160.535)"/><path d="M0 0 6.78439e-05 211.958" stroke="#BFBFBF" stroke-width="0.646214" stroke-linecap="butt" stroke-linejoin="round" stroke-miterlimit="10" stroke-opacity="1" fill="none" fill-rule="evenodd" transform="matrix(1.00324 0 0 -1 1012.56 465.548)"/><path d="M762.533 305.013 1048.59 305.013" stroke="#BFBFBF" stroke-width="0.646214" stroke-linecap="butt" stroke-linejoin="round" stroke-miterlimit="10" stroke-opacity="1" fill="none" fill-rule="evenodd" transform="matrix(1.00324 0 0 1 -39.4237 160.535)"/><path d="M777.331 120.617C777.331 121.807 776.366 122.771 775.177 122.771 773.984 122.771 773.023 121.807 773.023 120.617 773.023 119.428 773.984 118.463 775.177 118.463 776.366 118.463 777.331 119.428 777.331 120.617Z" stroke="#156082" stroke-width="0.646214" stroke-linecap="butt" stroke-linejoin="round" stroke-miterlimit="10" stroke-opacity="1" fill="#156082" fill-rule="nonzero" fill-opacity="1" transform="matrix(1.00324 0 0 1 -39.4237 160.535)"/><path d="M1019.02 106.831C1019.02 108.021 1018.05 108.985 1016.86 108.985 1015.67 108.985 1014.71 108.021 1014.71 106.831 1014.71 105.642 1015.67 104.677 1016.86 104.677 1018.05 104.677 1019.02 105.642 1019.02 106.831Z" stroke="#156082" stroke-width="0.646214" stroke-linecap="butt" stroke-linejoin="round" stroke-miterlimit="10" stroke-opacity="1" fill="#156082" fill-rule="nonzero" fill-opacity="1" transform="matrix(1.00324 0 0 1 -39.4237 160.535)"/><path d="M947.932 126.218C947.932 127.408 946.966 128.372 945.777 128.372 944.584 128.372 943.623 127.408 943.623 126.218 943.623 125.028 944.584 124.064 945.777 124.064 946.966 124.064 947.932 125.028 947.932 126.218Z" stroke="#156082" stroke-width="0.646214" stroke-linecap="butt" stroke-linejoin="round" stroke-miterlimit="10" stroke-opacity="1" fill="#156082" fill-rule="nonzero" fill-opacity="1" transform="matrix(1.00324 0 0 1 -39.4237 160.535)"/><path d="M906.574 119.325C906.574 120.515 905.609 121.479 904.42 121.479 903.226 121.479 902.266 120.515 902.266 119.325 902.266 118.135 903.226 117.171 904.42 117.171 905.609 117.171 906.574 118.135 906.574 119.325Z" stroke="#156082" stroke-width="0.646214" stroke-linecap="butt" stroke-linejoin="round" stroke-miterlimit="10" stroke-opacity="1" fill="#156082" fill-rule="nonzero" fill-opacity="1" transform="matrix(1.00324 0 0 1 -39.4237 160.535)"/><path d="M866.078 132.249C866.078 133.439 865.113 134.403 863.924 134.403 862.73 134.403 861.77 133.439 861.77 132.249 861.77 131.06 862.73 130.095 863.924 130.095 865.113 130.095 866.078 131.06 866.078 132.249Z" stroke="#156082" stroke-width="0.646214" stroke-linecap="butt" stroke-linejoin="round" stroke-miterlimit="10" stroke-opacity="1" fill="#156082" fill-rule="nonzero" fill-opacity="1" transform="matrix(1.00324 0 0 1 -39.4237 160.535)"/><path d="M875.555 114.586C875.555 115.776 874.59 116.74 873.401 116.74 872.208 116.74 871.247 115.776 871.247 114.586 871.247 113.396 872.208 112.432 873.401 112.432 874.59 112.432 875.555 113.396 875.555 114.586Z" stroke="#156082" stroke-width="0.646214" stroke-linecap="butt" stroke-linejoin="round" stroke-miterlimit="10" stroke-opacity="1" fill="#156082" fill-rule="nonzero" fill-opacity="1" transform="matrix(1.00324 0 0 1 -39.4237 160.535)"/><path d="M976.365 135.695C976.365 136.885 975.4 137.85 974.211 137.85 973.018 137.85 972.057 136.885 972.057 135.695 972.057 134.506 973.018 133.541 974.211 133.541 975.4 133.541 976.365 134.506 976.365 135.695Z" stroke="#156082" stroke-width="0.646214" stroke-linecap="butt" stroke-linejoin="round" stroke-miterlimit="10" stroke-opacity="1" fill="#156082" fill-rule="nonzero" fill-opacity="1" transform="matrix(1.00324 0 0 1 -39.4237 160.535)"/><path d="M776.039 277.001C776.039 278.191 775.073 279.155 773.884 279.155 772.691 279.155 771.73 278.191 771.73 277.001 771.73 275.811 772.691 274.847 773.884 274.847 775.073 274.847 776.039 275.811 776.039 277.001Z" stroke="#156082" stroke-width="0.646214" stroke-linecap="butt" stroke-linejoin="round" stroke-miterlimit="10" stroke-opacity="1" fill="#156082" fill-rule="nonzero" fill-opacity="1" transform="matrix(1.00324 0 0 1 -39.4237 160.535)"/><path d="M802.749 246.414C802.749 247.603 801.784 248.568 800.595 248.568 799.401 248.568 798.441 247.603 798.441 246.414 798.441 245.224 799.401 244.259 800.595 244.259 801.784 244.259 802.749 245.224 802.749 246.414Z" stroke="#156082" stroke-width="0.646214" stroke-linecap="butt" stroke-linejoin="round" stroke-miterlimit="10" stroke-opacity="1" fill="#156082" fill-rule="nonzero" fill-opacity="1" transform="matrix(1.00324 0 0 1 -39.4237 160.535)"/><text fill="#000000" fill-opacity="1" font-family="Times New Roman,Times New Roman_MSFontService,sans-serif" font-style="normal" font-variant="normal" font-weight="700" font-stretch="normal" font-size="24" text-anchor="start" direction="ltr" writing-mode="lr-tb" unicode-bidi="normal" text-decoration="none" transform="matrix(0.432203 0 0 0.430809 1021.32 469)">76%</text><text fill="#000000" fill-opacity="1" font-family="Times New Roman,Times New Roman_MSFontService,sans-serif" font-style="normal" font-variant="normal" font-weight="700" font-stretch="normal" font-size="24" text-anchor="start" direction="ltr" writing-mode="lr-tb" unicode-bidi="normal" text-decoration="none" transform="matrix(0.432203 0 0 0.430809 1021.32 438)">78%</text><text fill="#000000" fill-opacity="1" font-family="Times New Roman,Times New Roman_MSFontService,sans-serif" font-style="normal" font-variant="normal" font-weight="700" font-stretch="normal" font-size="24" text-anchor="start" direction="ltr" writing-mode="lr-tb" unicode-bidi="normal" text-decoration="none" transform="matrix(0.432203 0 0 0.430809 1021.32 408)">80%</text><text fill="#000000" fill-opacity="1" font-family="Times New Roman,Times New Roman_MSFontService,sans-serif" font-style="normal" font-variant="normal" font-weight="700" font-stretch="normal" font-size="24" text-anchor="start" direction="ltr" writing-mode="lr-tb" unicode-bidi="normal" text-decoration="none" transform="matrix(0.432203 0 0 0.430809 1021.32 378)">82%</text><text fill="#000000" fill-opacity="1" font-family="Times New Roman,Times New Roman_MSFontService,sans-serif" font-style="normal" font-variant="normal" font-weight="700" font-stretch="normal" font-size="24" text-anchor="start" direction="ltr" writing-mode="lr-tb" unicode-bidi="normal" text-decoration="none" transform="matrix(0.432203 0 0 0.430809 1021.32 348)">84%</text><text fill="#000000" fill-opacity="1" font-family="Times New Roman,Times New Roman_MSFontService,sans-serif" font-style="normal" font-variant="normal" font-weight="700" font-stretch="normal" font-size="24" text-anchor="start" direction="ltr" writing-mode="lr-tb" unicode-bidi="normal" text-decoration="none" transform="matrix(0.432203 0 0 0.430809 1021.32 317)">86%</text><text fill="#000000" fill-opacity="1" font-family="Times New Roman,Times New Roman_MSFontService,sans-serif" font-style="normal" font-variant="normal" font-weight="700" font-stretch="normal" font-size="24" text-anchor="start" direction="ltr" writing-mode="lr-tb" unicode-bidi="normal" text-decoration="none" transform="matrix(0.432203 0 0 0.430809 1021.32 287)">88%</text><text fill="#000000" fill-opacity="1" font-family="Times New Roman,Times New Roman_MSFontService,sans-serif" font-style="normal" font-variant="normal" font-weight="700" font-stretch="normal" font-size="24" text-anchor="start" direction="ltr" writing-mode="lr-tb" unicode-bidi="normal" text-decoration="none" transform="matrix(0.432203 0 0 0.430809 1021.32 257)">90%</text><text fill="#000000" fill-opacity="1" font-family="Times New Roman,Times New Roman_MSFontService,sans-serif" font-style="normal" font-variant="normal" font-weight="700" font-stretch="normal" font-size="28" text-anchor="start" direction="ltr" writing-mode="lr-tb" unicode-bidi="normal" text-decoration="none" transform="matrix(0.432203 0 0 0.430809 722.702 483)">1</text><text fill="#000000" fill-opacity="1" font-family="Times New Roman,Times New Roman_MSFontService,sans-serif" font-style="normal" font-variant="normal" font-weight="700" font-stretch="normal" font-size="28" text-anchor="start" direction="ltr" writing-mode="lr-tb" unicode-bidi="normal" text-decoration="none" transform="matrix(0.432203 0 0 0.430809 815.263 483)">10</text><text fill="#000000" fill-opacity="1" font-family="Times New Roman,Times New Roman_MSFontService,sans-serif" font-style="normal" font-variant="normal" font-weight="700" font-stretch="normal" font-size="28" text-anchor="start" direction="ltr" writing-mode="lr-tb" unicode-bidi="normal" text-decoration="none" transform="matrix(0.432203 0 0 0.430809 907.828 483)">100</text><text fill="#000000" fill-opacity="1" font-family="Times New Roman,Times New Roman_MSFontService,sans-serif" font-style="normal" font-variant="normal" font-weight="700" font-stretch="normal" font-size="28" text-anchor="start" direction="ltr" writing-mode="lr-tb" unicode-bidi="normal" text-decoration="none" transform="matrix(0.432203 0 0 0.430809 998.876 483)">1,000</text><path d="M769.426 119.55C769.426 116.814 771.644 114.595 774.38 114.595 777.116 114.595 779.334 116.814 779.334 119.55 779.334 122.286 777.116 124.504 774.38 124.504 771.644 124.504 769.426 122.286 769.426 119.55Z" fill="#E97132" fill-rule="evenodd" fill-opacity="1" transform="matrix(1.00324 0 0 1 -39.4237 160.535)"/><path d="M858.603 131.181C858.603 128.445 860.822 126.227 863.557 126.227 866.293 126.227 868.512 128.445 868.512 131.181 868.512 133.918 866.293 136.136 863.557 136.136 860.822 136.136 858.603 133.918 858.603 131.181Z" fill="#146082" fill-rule="evenodd" fill-opacity="1" transform="matrix(1.00324 0 0 1 -39.4237 160.535)"/><text fill="#E97132" fill-opacity="1" font-family="Times New Roman,Times New Roman_MSFontService,sans-serif" font-style="normal" font-variant="normal" font-weight="700" font-stretch="normal" font-size="28" text-anchor="start" direction="ltr" writing-mode="lr-tb" unicode-bidi="normal" text-decoration="none" transform="matrix(0.432203 0 0 0.430809 702.302 298)">HDC</text><text fill="#E97132" fill-opacity="1" font-family="Times New Roman,Times New Roman_MSFontService,sans-serif" font-style="normal" font-variant="normal" font-weight="700" font-stretch="normal" font-size="28" text-anchor="start" direction="ltr" writing-mode="lr-tb" unicode-bidi="normal" text-decoration="none" transform="matrix(0.432203 0 0 0.430809 729.207 298)">-</text><text fill="#E97132" fill-opacity="1" font-family="Times New Roman,Times New Roman_MSFontService,sans-serif" font-style="normal" font-variant="normal" font-weight="700" font-stretch="normal" font-size="28" text-anchor="start" direction="ltr" writing-mode="lr-tb" unicode-bidi="normal" text-decoration="none" transform="matrix(0.432203 0 0 0.430809 733.205 298)">X (Ours)</text><text fill="#146082" fill-opacity="1" font-family="Times New Roman,Times New Roman_MSFontService,sans-serif" font-style="normal" font-variant="normal" font-weight="700" font-stretch="normal" font-size="28" text-anchor="start" direction="ltr" writing-mode="lr-tb" unicode-bidi="normal" text-decoration="none" transform="matrix(0.432203 0 0 0.430809 797.88 311)">Light CNN</text><path d="M867.65 114.811C867.65 112.075 869.869 109.856 872.604 109.856 875.34 109.856 877.559 112.075 877.559 114.811 877.559 117.547 875.34 119.765 872.604 119.765 869.869 119.765 867.65 117.547 867.65 114.811Z" fill="#A02B93" fill-rule="evenodd" fill-opacity="1" transform="matrix(1.00324 0 0 1 -39.4237 160.535)"/><text fill="#A02B93" fill-opacity="1" font-family="Times New Roman,Times New Roman_MSFontService,sans-serif" font-style="normal" font-variant="normal" font-weight="700" font-stretch="normal" font-size="28" text-anchor="start" direction="ltr" writing-mode="lr-tb" unicode-bidi="normal" text-decoration="none" transform="matrix(0.432203 0 0 0.430809 777.57 280)">KD CNN</text><path d="M899.099 118.257C899.099 115.521 901.318 113.303 904.054 113.303 906.789 113.303 909.008 115.521 909.008 118.257 909.008 120.993 906.789 123.211 904.054 123.211 901.318 123.211 899.099 120.993 899.099 118.257Z" fill="#4EA72E" fill-rule="evenodd" fill-opacity="1" transform="matrix(1.00324 0 0 1 -39.4237 160.535)"/><text fill="#4EA72E" fill-opacity="1" font-family="Times New Roman,Times New Roman_MSFontService,sans-serif" font-style="normal" font-variant="normal" font-weight="700" font-stretch="normal" font-size="28" text-anchor="start" direction="ltr" writing-mode="lr-tb" unicode-bidi="normal" text-decoration="none" transform="matrix(0.432203 0 0 0.430809 847.518 298)">VGG16</text><path d="M941.319 126.012C941.319 123.276 943.537 121.057 946.273 121.057 949.009 121.057 951.227 123.276 951.227 126.012 951.227 128.748 949.009 130.966 946.273 130.966 943.537 130.966 941.319 128.748 941.319 126.012Z" fill="#0E9ED5" fill-rule="evenodd" fill-opacity="1" transform="matrix(1.00324 0 0 1 -39.4237 160.535)"/><text fill="#0E9ED5" fill-opacity="1" font-family="Times New Roman,Times New Roman_MSFontService,sans-serif" font-style="normal" font-variant="normal" font-weight="700" font-stretch="normal" font-size="28" text-anchor="start" direction="ltr" writing-mode="lr-tb" unicode-bidi="normal" text-decoration="none" transform="matrix(0.432203 0 0 0.430809 879.959 278)">ViT + CNN</text><path d="M1011.97 106.625C1011.97 103.889 1014.19 101.671 1016.93 101.671 1019.66 101.671 1021.88 103.889 1021.88 106.625 1021.88 109.361 1019.66 111.58 1016.93 111.58 1014.19 111.58 1011.97 109.361 1011.97 106.625Z" fill="#196B24" fill-rule="evenodd" fill-opacity="1" transform="matrix(1.00324 0 0 1 -39.4237 160.535)"/><text fill="#196B24" fill-opacity="1" font-family="Times New Roman,Times New Roman_MSFontService,sans-serif" font-style="normal" font-variant="normal" font-weight="700" font-stretch="normal" font-size="28" text-anchor="start" direction="ltr" writing-mode="lr-tb" unicode-bidi="normal" text-decoration="none" transform="matrix(0.432203 0 0 0.430809 957.985 285)">Bayesian </text><text fill="#196B24" fill-opacity="1" font-family="Times New Roman,Times New Roman_MSFontService,sans-serif" font-style="normal" font-variant="normal" font-weight="700" font-stretch="normal" font-size="28" text-anchor="start" direction="ltr" writing-mode="lr-tb" unicode-bidi="normal" text-decoration="none" transform="matrix(0.432203 0 0 0.430809 962.687 299)">ResNet</text><path d="M968.89 133.336C968.89 130.599 971.109 128.381 973.845 128.381 976.58 128.381 978.799 130.599 978.799 133.336 978.799 136.072 976.58 138.29 973.845 138.29 971.109 138.29 968.89 136.072 968.89 133.336Z" fill="#D86ECC" fill-rule="evenodd" fill-opacity="1" transform="matrix(1.00324 0 0 1 -39.4237 160.535)"/><text fill="#D86ECC" fill-opacity="1" font-family="Times New Roman,Times New Roman_MSFontService,sans-serif" font-style="normal" font-variant="normal" font-weight="700" font-stretch="normal" font-size="28" text-anchor="start" direction="ltr" writing-mode="lr-tb" unicode-bidi="normal" text-decoration="none" transform="matrix(0.432203 0 0 0.430809 918.222 314)">Pruned </text><text fill="#D86ECC" fill-opacity="1" font-family="Times New Roman,Times New Roman_MSFontService,sans-serif" font-style="normal" font-variant="normal" font-weight="700" font-stretch="normal" font-size="28" text-anchor="start" direction="ltr" writing-mode="lr-tb" unicode-bidi="normal" text-decoration="none" transform="matrix(0.432203 0 0 0.430809 918.819 328)">ResNet</text><path d="M246.979 41.3565 232.801 31.0173 237.971 31.0173C224.188 12.7576 176.037-7.8117e-05 120.905-7.8117e-05L131.244 0C186.376 0 234.526 12.7577 248.309 31.0174L253.479 31.0173Z" fill="#C00000" fill-rule="evenodd" fill-opacity="1" transform="matrix(-1.0013 0.0618811 0.0620813 0.998071 982.085 209.221)"/><path d="M126.074 0.0377086C61.3704 0.984902 10.3393 19.2036 10.3393 41.3564L0 41.3565C-3.27601e-14 18.5159 54.131-8.19004e-15 120.905-1.63801e-14 122.628-8.19004e-15 124.352 0.0126098 126.074 0.0378208Z" fill="#9A0000" fill-rule="evenodd" fill-opacity="1" transform="matrix(-1.0013 0.0618811 0.0620813 0.998071 982.085 209.221)"/><text fill="#C00000" fill-opacity="1" font-family="Times New Roman,Times New Roman_MSFontService,sans-serif" font-style="normal" font-variant="normal" font-weight="700" font-stretch="normal" font-size="28" text-anchor="start" direction="ltr" writing-mode="lr-tb" unicode-bidi="normal" text-decoration="none" transform="matrix(0.432203 0 0 0.430809 807.699 211)">350x Energy </text><text fill="#C00000" fill-opacity="1" font-family="Times New Roman,Times New Roman_MSFontService,sans-serif" font-style="normal" font-variant="normal" font-weight="700" font-stretch="normal" font-size="28" text-anchor="start" direction="ltr" writing-mode="lr-tb" unicode-bidi="normal" text-decoration="none" transform="matrix(0.432203 0 0 0.430809 875.663 211)">E</text><text fill="#C00000" fill-opacity="1" font-family="Times New Roman,Times New Roman_MSFontService,sans-serif" font-style="normal" font-variant="normal" font-weight="700" font-stretch="normal" font-size="28" text-anchor="start" direction="ltr" writing-mode="lr-tb" unicode-bidi="normal" text-decoration="none" transform="matrix(0.432203 0 0 0.430809 883.767 211)">fficient</text><text fill="#000000" fill-opacity="1" font-family="Times New Roman,Times New Roman_MSFontService,sans-serif" font-style="normal" font-variant="normal" font-weight="700" font-stretch="normal" font-size="28" text-anchor="start" direction="ltr" writing-mode="lr-tb" unicode-bidi="normal" text-decoration="none" transform="matrix(0.432203 0 0 0.430809 762.253 508)">Energy Consumption per 50 Inference (J)</text><text fill="#000000" fill-opacity="1" font-family="Times New Roman,Times New Roman_MSFontService,sans-serif" font-style="normal" font-variant="normal" font-weight="700" font-stretch="normal" font-size="28" text-anchor="start" direction="ltr" writing-mode="lr-tb" unicode-bidi="normal" text-decoration="none" transform="matrix(0.432203 0 0 0.430809 994.714 224)">Average </text><text fill="#000000" fill-opacity="1" font-family="Times New Roman,Times New Roman_MSFontService,sans-serif" font-style="normal" font-variant="normal" font-weight="700" font-stretch="normal" font-size="28" text-anchor="start" direction="ltr" writing-mode="lr-tb" unicode-bidi="normal" text-decoration="none" transform="matrix(0.432203 0 0 0.430809 991.239 238)">Accuracy</text><path d="M716.651 45.8812 716.651 356.72" stroke="#000000" stroke-width="1.29243" stroke-linecap="butt" stroke-linejoin="miter" stroke-miterlimit="8" stroke-dasharray="5.16971 3.87728" stroke-opacity="1" fill="none" fill-rule="evenodd" transform="matrix(1.00324 0 0 1 -39.4237 160.535)"/><path d="M639.537 228.975C639.537 224.93 642.815 221.651 646.86 221.651L702.866 221.651C706.911 221.651 710.189 224.93 710.189 228.975L710.189 258.27C710.189 262.315 706.911 265.594 702.866 265.594L646.86 265.594C642.815 265.594 639.537 262.315 639.537 258.27Z" stroke="#C1DEC1" stroke-width="1.29243" stroke-linecap="butt" stroke-linejoin="miter" stroke-miterlimit="8" stroke-opacity="1" fill="none" fill-rule="evenodd" transform="matrix(1.00324 0 0 1 -39.4237 160.535)"/><text fill="#3B7D23" fill-opacity="1" font-family="Times New Roman,Times New Roman_MSFontService,sans-serif" font-style="normal" font-variant="normal" font-weight="700" font-stretch="normal" font-size="24" text-anchor="start" direction="ltr" writing-mode="lr-tb" unicode-bidi="normal" text-decoration="none" transform="matrix(0.432203 0 0 0.430809 616.639 396)">Performs </text><text fill="#3B7D23" fill-opacity="1" font-family="Times New Roman,Times New Roman_MSFontService,sans-serif" font-style="normal" font-variant="normal" font-weight="700" font-stretch="normal" font-size="24" text-anchor="start" direction="ltr" writing-mode="lr-tb" unicode-bidi="normal" text-decoration="none" transform="matrix(0.432203 0 0 0.430809 615.399 408)">on Simple </text><text fill="#3B7D23" fill-opacity="1" font-family="Times New Roman,Times New Roman_MSFontService,sans-serif" font-style="normal" font-variant="normal" font-weight="700" font-stretch="normal" font-size="24" text-anchor="start" direction="ltr" writing-mode="lr-tb" unicode-bidi="normal" text-decoration="none" transform="matrix(0.432203 0 0 0.430809 614.733 420)">Hardware</text><path d="M638.244 247.5 635.228 243.623 638.244 239.745Z" stroke="#C1DEC2" stroke-width="1.29243" stroke-linecap="butt" stroke-linejoin="miter" stroke-miterlimit="8" stroke-opacity="1" fill="#C1DEC2" fill-rule="evenodd" fill-opacity="1" transform="matrix(1.00324 0 0 1 -39.4237 160.535)"/><path d="M272.056 228.544C272.056 224.5 275.335 221.221 279.38 221.221L335.385 221.221C339.43 221.221 342.709 224.5 342.709 228.544L342.709 257.839C342.709 261.884 339.43 265.163 335.385 265.163L279.38 265.163C275.335 265.163 272.056 261.884 272.056 257.839Z" stroke="#FFC5C1" stroke-width="1.29243" stroke-linecap="butt" stroke-linejoin="miter" stroke-miterlimit="8" stroke-opacity="1" fill="none" fill-rule="evenodd" transform="matrix(1.00324 0 0 1 -39.4237 160.535)"/><text fill="#FD0B00" fill-opacity="1" font-family="Times New Roman,Times New Roman_MSFontService,sans-serif" font-style="normal" font-variant="normal" font-weight="700" font-stretch="normal" font-size="24" text-anchor="start" direction="ltr" writing-mode="lr-tb" unicode-bidi="normal" text-decoration="none" transform="matrix(0.432203 0 0 0.430809 248.961 395)">Requires </text><text fill="#FD0B00" fill-opacity="1" font-family="Times New Roman,Times New Roman_MSFontService,sans-serif" font-style="normal" font-variant="normal" font-weight="700" font-stretch="normal" font-size="24" text-anchor="start" direction="ltr" writing-mode="lr-tb" unicode-bidi="normal" text-decoration="none" transform="matrix(0.432203 0 0 0.430809 246.602 407)">Advanced </text><text fill="#FD0B00" fill-opacity="1" font-family="Times New Roman,Times New Roman_MSFontService,sans-serif" font-style="normal" font-variant="normal" font-weight="700" font-stretch="normal" font-size="24" text-anchor="start" direction="ltr" writing-mode="lr-tb" unicode-bidi="normal" text-decoration="none" transform="matrix(0.432203 0 0 0.430809 257.783 419)">GPU</text><path d="M343.57 239.745 346.586 243.623 343.57 247.5Z" stroke="#FFC5C1" stroke-width="1.29243" stroke-linecap="butt" stroke-linejoin="miter" stroke-miterlimit="8" stroke-opacity="1" fill="#FFC5C1" fill-rule="evenodd" fill-opacity="1" transform="matrix(1.00324 0 0 1 -39.4237 160.535)"/><text fill="#000000" fill-opacity="1" font-family="Times New Roman,Times New Roman_MSFontService,sans-serif" font-style="normal" font-variant="normal" font-weight="700" font-stretch="normal" font-size="22" text-anchor="start" direction="ltr" writing-mode="lr-tb" unicode-bidi="normal" text-decoration="none" transform="matrix(0.432203 0 0 0.430809 448.599 381)">or</text><path d="M528.172 227.467C528.172 225.683 528.414 224.236 528.711 224.236L564.683 224.236C564.981 224.236 565.222 222.79 565.222 221.005 565.222 222.79 565.463 224.236 565.76 224.236L601.733 224.236C602.03 224.236 602.272 225.683 602.272 227.467" stroke="#000000" stroke-width="0.861619" stroke-linecap="butt" stroke-linejoin="miter" stroke-miterlimit="8" stroke-opacity="1" fill="none" fill-rule="evenodd" transform="matrix(1.00324 0 0 1 -39.4237 160.535)"/><path d="M506.847 231.56C506.847 230.132 508.006 228.975 509.432 228.975L548.205 228.975C549.631 228.975 550.79 230.132 550.79 231.56L550.79 241.899C550.79 243.327 549.631 244.484 548.205 244.484L509.432 244.484C508.006 244.484 506.847 243.327 506.847 241.899Z" stroke="#000000" stroke-width="1.29243" stroke-linecap="butt" stroke-linejoin="miter" stroke-miterlimit="8" stroke-opacity="1" fill="#FFFFFF" fill-rule="evenodd" fill-opacity="1" transform="matrix(1.00324 0 0 1 -39.4237 160.535)"/><text fill="#000000" fill-opacity="1" font-family="Times New Roman,Times New Roman_MSFontService,sans-serif" font-style="normal" font-variant="normal" font-weight="700" font-stretch="normal" font-size="12" text-anchor="start" direction="ltr" writing-mode="lr-tb" unicode-bidi="normal" text-decoration="none" transform="matrix(0.432203 0 0 0.430809 477.245 399)">Cluster</text><text fill="#000000" fill-opacity="1" font-family="Times New Roman,Times New Roman_MSFontService,sans-serif" font-style="normal" font-variant="normal" font-weight="700" font-stretch="normal" font-size="12" text-anchor="start" direction="ltr" writing-mode="lr-tb" unicode-bidi="normal" text-decoration="none" transform="matrix(0.432203 0 0 0.430809 493.669 399)">-</text><text fill="#000000" fill-opacity="1" font-family="Times New Roman,Times New Roman_MSFontService,sans-serif" font-style="normal" font-variant="normal" font-weight="700" font-stretch="normal" font-size="12" text-anchor="start" direction="ltr" writing-mode="lr-tb" unicode-bidi="normal" text-decoration="none" transform="matrix(0.432203 0 0 0.430809 495.398 399)">HV</text><text fill="#000000" fill-opacity="1" font-family="Times New Roman,Times New Roman_MSFontService,sans-serif" font-style="normal" font-variant="normal" font-weight="700" font-stretch="normal" font-size="8" text-anchor="start" direction="ltr" writing-mode="lr-tb" unicode-bidi="normal" text-decoration="none" transform="matrix(0.432203 0 0 0.430809 503.177 399)">1</text><path d="M579.654 231.56C579.654 230.132 580.813 228.975 582.239 228.975L621.012 228.975C622.438 228.975 623.597 230.132 623.597 231.56L623.597 241.899C623.597 243.327 622.438 244.484 621.012 244.484L582.239 244.484C580.813 244.484 579.654 243.327 579.654 241.899Z" stroke="#000000" stroke-width="1.29243" stroke-linecap="butt" stroke-linejoin="miter" stroke-miterlimit="8" stroke-opacity="1" fill="#FFFFFF" fill-rule="evenodd" fill-opacity="1" transform="matrix(1.00324 0 0 1 -39.4237 160.535)"/><text fill="#000000" fill-opacity="1" font-family="Times New Roman,Times New Roman_MSFontService,sans-serif" font-style="normal" font-variant="normal" font-weight="700" font-stretch="normal" font-size="12" text-anchor="start" direction="ltr" writing-mode="lr-tb" unicode-bidi="normal" text-decoration="none" transform="matrix(0.432203 0 0 0.430809 549.657 399)">Cluster</text><text fill="#000000" fill-opacity="1" font-family="Times New Roman,Times New Roman_MSFontService,sans-serif" font-style="normal" font-variant="normal" font-weight="700" font-stretch="normal" font-size="12" text-anchor="start" direction="ltr" writing-mode="lr-tb" unicode-bidi="normal" text-decoration="none" transform="matrix(0.432203 0 0 0.430809 566.08 399)">-</text><text fill="#000000" fill-opacity="1" font-family="Times New Roman,Times New Roman_MSFontService,sans-serif" font-style="normal" font-variant="normal" font-weight="700" font-stretch="normal" font-size="12" text-anchor="start" direction="ltr" writing-mode="lr-tb" unicode-bidi="normal" text-decoration="none" transform="matrix(0.432203 0 0 0.430809 567.809 399)">HV</text><text fill="#000000" fill-opacity="1" font-family="Times New Roman,Times New Roman_MSFontService,sans-serif" font-style="italic" font-variant="normal" font-weight="700" font-stretch="normal" font-size="8" text-anchor="start" direction="ltr" writing-mode="lr-tb" unicode-bidi="normal" text-decoration="none" transform="matrix(0.432203 0 0 0.430809 575.589 399)">K</text><text fill="#000000" fill-opacity="1" font-family="Times New Roman,Times New Roman_MSFontService,sans-serif" font-style="normal" font-variant="normal" font-weight="700" font-stretch="normal" font-size="18" text-anchor="start" direction="ltr" writing-mode="lr-tb" unicode-bidi="normal" text-decoration="none" transform="matrix(0.432203 0 0 0.430809 523.361 400)">…</text><text fill="#000000" fill-opacity="1" font-family="Times New Roman,Times New Roman_MSFontService,sans-serif" font-style="normal" font-variant="normal" font-weight="700" font-stretch="normal" font-size="12" text-anchor="start" direction="ltr" writing-mode="lr-tb" unicode-bidi="normal" text-decoration="none" transform="matrix(0.432203 0 0 0.430809 516.07 393)">argmin </text><text fill="#000000" fill-opacity="1" font-family="Times New Roman,Times New Roman_MSFontService,sans-serif" font-style="italic" font-variant="normal" font-weight="700" font-stretch="normal" font-size="12" text-anchor="start" direction="ltr" writing-mode="lr-tb" unicode-bidi="normal" text-decoration="none" transform="matrix(0.432203 0 0 0.430809 533.466 393)">d</text><text fill="#000000" fill-opacity="1" font-family="Times New Roman,Times New Roman_MSFontService,sans-serif" font-style="italic" font-variant="normal" font-weight="700" font-stretch="normal" font-size="8" text-anchor="start" direction="ltr" writing-mode="lr-tb" unicode-bidi="normal" text-decoration="none" transform="matrix(0.432203 0 0 0.430809 536.059 393)">H</text><path d="M538.081 198.603 564.899 203.339" stroke="#000000" stroke-width="0.861619" stroke-linecap="butt" stroke-linejoin="miter" stroke-miterlimit="8" stroke-opacity="1" fill="none" fill-rule="evenodd" transform="matrix(1.00324 0 0 1 -39.4237 160.535)"/><path d="M0 0 29.4861 4.61449" stroke="#000000" stroke-width="0.861619" stroke-linecap="butt" stroke-linejoin="miter" stroke-miterlimit="8" stroke-opacity="1" fill="none" fill-rule="evenodd" transform="matrix(-1.00324 0 0 1 556.775 359.569)"/><path d="M795.705 245.131C795.705 242.513 797.924 240.392 800.659 240.392 803.395 240.392 805.614 242.513 805.614 245.131 805.614 247.748 803.395 249.869 800.659 249.869 797.924 249.869 795.705 247.748 795.705 245.131Z" fill="#80350E" fill-rule="evenodd" fill-opacity="1" transform="matrix(1.00324 0 0 1 -39.4237 160.535)"/><text fill="#80350E" fill-opacity="1" font-family="Times New Roman,Times New Roman_MSFontService,sans-serif" font-style="normal" font-variant="normal" font-weight="700" font-stretch="normal" font-size="28" text-anchor="start" direction="ltr" writing-mode="lr-tb" unicode-bidi="normal" text-decoration="none" transform="matrix(0.432203 0 0 0.430809 736.278 426)">HDCluster</text><path d="M769.426 278.303C769.426 275.686 771.545 273.564 774.164 273.564 776.784 273.564 778.903 275.686 778.903 278.303 778.903 280.92 776.784 283.042 774.164 283.042 771.545 283.042 769.426 280.92 769.426 278.303Z" fill="#275317" fill-rule="evenodd" fill-opacity="1" transform="matrix(1.00324 0 0 1 -39.4237 160.535)"/><text fill="#275317" fill-opacity="1" font-family="Times New Roman,Times New Roman_MSFontService,sans-serif" font-style="normal" font-variant="normal" font-weight="700" font-stretch="normal" font-size="28" text-anchor="start" direction="ltr" writing-mode="lr-tb" unicode-bidi="normal" text-decoration="none" transform="matrix(0.432203 0 0 0.430809 740.349 456)">HDC</text><path d="M756.501 291.443C756.501 288.706 758.72 286.488 761.456 286.488 764.191 286.488 766.41 288.706 766.41 291.443 766.41 294.179 764.191 296.397 761.456 296.397 758.72 296.397 756.501 294.179 756.501 291.443Z" fill="#0B76A0" fill-rule="evenodd" fill-opacity="1" transform="matrix(1.00324 0 0 1 -39.4237 160.535)"/><text fill="#0B76A0" fill-opacity="1" font-family="Times New Roman,Times New Roman_MSFontService,sans-serif" font-style="normal" font-variant="normal" font-weight="700" font-stretch="normal" font-size="28" text-anchor="start" direction="ltr" writing-mode="lr-tb" unicode-bidi="normal" text-decoration="none" transform="matrix(0.432203 0 0 0.430809 701.252 469)">K</text><text fill="#0B76A0" fill-opacity="1" font-family="Times New Roman,Times New Roman_MSFontService,sans-serif" font-style="normal" font-variant="normal" font-weight="700" font-stretch="normal" font-size="28" text-anchor="start" direction="ltr" writing-mode="lr-tb" unicode-bidi="normal" text-decoration="none" transform="matrix(0.432203 0 0 0.430809 710.652 469)">-</text><text fill="#0B76A0" fill-opacity="1" font-family="Times New Roman,Times New Roman_MSFontService,sans-serif" font-style="normal" font-variant="normal" font-weight="700" font-stretch="normal" font-size="28" text-anchor="start" direction="ltr" writing-mode="lr-tb" unicode-bidi="normal" text-decoration="none" transform="matrix(0.432203 0 0 0.430809 714.65 469)">means</text><text fill="#000000" fill-opacity="1" font-family="Times New Roman,Times New Roman_MSFontService,sans-serif" font-style="normal" font-variant="normal" font-weight="700" font-stretch="normal" font-size="22" text-anchor="start" direction="ltr" writing-mode="lr-tb" unicode-bidi="normal" text-decoration="none" transform="matrix(0.432203 0 0 0.430809 437.098 445)">Classify</text></g></g></g></g></g></g></g></svg>