<svg width="816" height="611" xmlns="http://www.w3.org/2000/svg" xmlns:xlink="http://www.w3.org/1999/xlink" xml:space="preserve" overflow="hidden"><g transform="translate(-232 -54)"><g><g><g><g><path d="M503.809 65.4712 1316.61 65.4712 1316.61 673.874 503.809 673.874Z" fill="#FFFFFF" fill-rule="nonzero" fill-opacity="1" transform="matrix(1.00001 0 0 1 -269.417 -10.4712)"/><path d="M799.627 157.904C804.218 159.014 808.809 160.124 810.853 159.014 812.905 157.904 811.3 151.151 811.923 151.243 812.546 151.335 813.887 164.286 814.598 159.568 815.308 154.851 815.931 120.807 816.202 122.935 816.466 125.063 815.755 171.688 816.202 172.335 816.649 172.983 818.43 122.102 818.877 126.82 819.324 131.538 818.43 202.863 818.877 200.643 819.324 198.423 820.929 113.407 821.552 113.499 822.175 113.592 822.087 200.643 822.622 201.199 823.157 201.754 824.314 119.882 824.753 116.829 825.201 113.776 824.849 179.551 825.289 182.881 825.736 186.211 826.893 136.812 827.428 136.812 827.963 136.812 828.147 185.934 828.498 182.881 828.857 179.829 829.121 117.939 829.568 118.494 830.015 119.05 830.638 183.621 831.173 186.211 831.708 188.802 832.331 132.741 832.778 134.036 833.225 135.331 833.401 193.705 833.848 193.982 834.295 194.26 835.005 135.794 835.452 135.701 835.9 135.608 835.987 201.013 836.522 193.427 837.057 185.842 838.031 82.9704 838.662 90.1866 839.285 97.402 839.724 235.242 840.259 236.722 840.794 238.202 841.329 107.023 841.864 99.0675 842.399 91.1112 842.758 183.251 843.469 188.987 844.187 194.723 845.345 136.996 846.143 133.481 846.95 129.966 847.125 164.842 848.283 167.895 849.441 170.948 852.116 151.891 853.098 151.798 854.072 151.706 853.449 167.617 854.168 167.34 854.878 167.062 856.212 150.502 857.369 150.133 858.527 149.763 860.044 164.379 861.114 165.119 862.184 165.859 862.719 155.221 863.789 154.574 864.859 153.926 866.376 161.234 867.533 161.234 868.691 161.234 869.849 154.574 870.743 154.574 871.629 154.574 871.901 161.327 872.875 161.234 873.857 161.141 875.733 153.926 876.62 154.018 877.514 154.11 877.514 161.419 878.224 161.789 878.935 162.159 880.236 156.217 880.899 156.238 881.562 156.259 881.761 161.824 882.201 161.913 882.632 162.001 883.023 157.012 883.518 156.771 884.013 156.529 884.181 160.097 885.171 160.463 886.153 160.829 888.78 158.939 889.426 158.967 890.073 158.996 888.979 160.842 889.043 160.633 889.107 160.424 889.754 157.739 889.81 157.711 889.865 157.683 889.091 160.371 889.386 160.463 889.682 160.555 891.047 158.214 891.566 158.266 892.093 158.319 891.598 160.864 892.516 160.779 893.442 160.694 888.005 158.24 897.099 157.757 906.201 157.274 942.666 157.839 947.121 157.881 951.584 157.921 949.189 156.731 949.492 157.132 949.803 157.535 948.782 160.443 948.973 160.293 949.165 160.144 950.051 156.451 950.642 156.238 951.241 156.025 951.784 159.106 952.542 159.014 953.309 158.921 954.418 154.943 955.217 155.683 956.023 156.423 956.822 164.195 957.357 163.454 957.892 162.714 957.979 150.78 958.427 151.243 958.874 151.706 959.409 166.137 960.031 166.23 960.654 166.322 961.724 151.058 962.171 151.798 962.618 152.538 962.347 171.503 962.706 170.67 963.057 169.837 963.864 146.617 964.311 146.802 964.75 146.988 965.197 172.89 965.381 171.78 965.557 170.67 965.197 139.771 965.381 140.142 965.557 140.512 965.916 173.167 966.451 174 966.986 174.833 967.888 141.344 968.583 145.137 969.285 148.93 970.171 206.748 970.619 196.758 971.066 186.767 970.882 80.3803 971.257 85.1908 971.633 90.0014 972.415 220.718 972.862 225.621 973.309 230.524 973.397 123.675 973.932 114.609 974.467 105.543 975.449 166.785 976.072 171.225 976.695 175.666 977.054 141.622 977.677 141.252 978.299 140.882 979.194 167.432 979.817 169.005 980.439 170.577 980.791 152.168 981.421 150.688 982.044 149.208 982.843 159.661 983.553 160.124 984.272 160.587 985.158 152.908 985.693 153.463 986.228 154.018 986.316 165.49 986.763 163.454 987.21 161.419 987.745 140.789 988.368 141.252 988.99 141.714 989.613 164.195 990.507 166.23 991.402 168.265 992.647 154.481 993.717 153.463 994.787 152.446 995.945 159.568 996.927 160.124 997.901 160.679 998.971 156.701 999.594 156.793 1000.22 156.886 1000.22 161.327 1000.66 160.679 1001.11 160.032 1001.29 152.723 1002.27 152.908 1003.25 153.093 1005.48 161.512 1006.55 161.789 1007.62 162.067 1007.71 154.758 1008.69 154.574 1009.67 154.388 1011.36 160.309 1012.43 160.679 1013.5 161.049 1013.68 157.349 1015.1 156.793 1016.53 156.238 1018.93 157.349 1020.98 157.349L1027.98 156.279" stroke="#215F9A" stroke-width="2.39529" stroke-linecap="butt" stroke-linejoin="miter" stroke-miterlimit="8" stroke-opacity="1" fill="none" fill-rule="evenodd" transform="matrix(1.00001 0 0 1 -269.417 -10.4712)"/><text fill="#000000" fill-opacity="1" font-family="Times New Roman,Times New Roman_MSFontService,sans-serif" font-style="normal" font-variant="normal" font-weight="700" font-stretch="normal" font-size="28" text-anchor="start" direction="ltr" writing-mode="lr-tb" unicode-bidi="normal" text-decoration="none" transform="matrix(0.798434 0 0 0.798429 578.816 245)">Medical Data</text><path d="M911.008 264.28 911.008 283.598 906.217 283.598 906.217 264.28ZM915.798 281.203 908.613 295.575 901.427 281.203Z" fill="#000000" fill-rule="nonzero" fill-opacity="1" transform="matrix(1.00001 0 0 1 -269.417 -10.4712)"/><path d="M641.937 342.128C641.937 325.591 655.343 312.186 671.879 312.186L869.889 312.186C886.424 312.186 899.83 325.591 899.83 342.128L899.83 461.891C899.83 478.427 886.424 491.832 869.889 491.832L671.879 491.832C655.343 491.832 641.937 478.427 641.937 461.891Z" fill="#F2CFEE" fill-rule="evenodd" fill-opacity="1" transform="matrix(1.00001 0 0 1 -269.417 -10.4712)"/><path d="M683.056 360.092C683.056 350.611 690.563 342.925 699.823 342.925 709.083 342.925 716.59 350.611 716.59 360.092 716.59 369.572 709.083 377.258 699.823 377.258 690.563 377.258 683.056 369.572 683.056 360.092Z" stroke="#042433" stroke-width="2.39529" stroke-linecap="butt" stroke-linejoin="miter" stroke-miterlimit="8" stroke-opacity="1" fill="#FFFFFF" fill-rule="evenodd" fill-opacity="1" transform="matrix(1.00001 0 0 1 -269.417 -10.4712)"/><path d="M681.459 411.191C681.459 401.711 689.145 394.025 698.626 394.025 708.106 394.025 715.792 401.711 715.792 411.191 715.792 420.672 708.106 428.357 698.626 428.357 689.145 428.357 681.459 420.672 681.459 411.191Z" stroke="#042433" stroke-width="2.39529" stroke-linecap="butt" stroke-linejoin="miter" stroke-miterlimit="8" stroke-opacity="1" fill="#FFFFFF" fill-rule="evenodd" fill-opacity="1" transform="matrix(1.00001 0 0 1 -269.417 -10.4712)"/><path d="M749.326 334.143C749.326 324.882 757.012 317.376 766.492 317.376 775.973 317.376 783.658 324.882 783.658 334.143 783.658 343.403 775.973 350.91 766.492 350.91 757.012 350.91 749.326 343.403 749.326 334.143Z" stroke="#042433" stroke-width="2.39529" stroke-linecap="butt" stroke-linejoin="miter" stroke-miterlimit="8" stroke-opacity="1" fill="#FFFFFF" fill-rule="evenodd" fill-opacity="1" transform="matrix(1.00001 0 0 1 -269.417 -10.4712)"/><path d="M749.326 437.539C749.326 428.059 757.012 420.373 766.492 420.373 775.973 420.373 783.658 428.059 783.658 437.539 783.658 447.02 775.973 454.706 766.492 454.706 757.012 454.706 749.326 447.02 749.326 437.539Z" stroke="#042433" stroke-width="2.39529" stroke-linecap="butt" stroke-linejoin="miter" stroke-miterlimit="8" stroke-opacity="1" fill="#FFFFFF" fill-rule="evenodd" fill-opacity="1" transform="matrix(1.00001 0 0 1 -269.417 -10.4712)"/><path d="M749.326 385.641C749.326 376.161 757.012 368.475 766.492 368.475 775.973 368.475 783.658 376.161 783.658 385.641 783.658 395.122 775.973 402.808 766.492 402.808 757.012 402.808 749.326 395.122 749.326 385.641Z" stroke="#042433" stroke-width="2.39529" stroke-linecap="butt" stroke-linejoin="miter" stroke-miterlimit="8" stroke-opacity="1" fill="#FFFFFF" fill-rule="evenodd" fill-opacity="1" transform="matrix(1.00001 0 0 1 -269.417 -10.4712)"/><path d="M816.394 360.092C816.394 350.611 823.899 342.925 833.161 342.925 842.423 342.925 849.928 350.611 849.928 360.092 849.928 369.572 842.423 377.258 833.161 377.258 823.899 377.258 816.394 369.572 816.394 360.092Z" stroke="#042433" stroke-width="2.39529" stroke-linecap="butt" stroke-linejoin="miter" stroke-miterlimit="8" stroke-opacity="1" fill="#FFFFFF" fill-rule="evenodd" fill-opacity="1" transform="matrix(1.00001 0 0 1 -269.417 -10.4712)"/><path d="M716.59 359.692 749.395 385.281" stroke="#000000" stroke-width="2.39529" stroke-linecap="butt" stroke-linejoin="miter" stroke-miterlimit="8" stroke-opacity="1" fill="none" fill-rule="evenodd" transform="matrix(1.00001 0 0 1 -269.417 -10.4712)"/><path d="M0 0 32.8049 25.6462" stroke="#000000" stroke-width="2.39529" stroke-linecap="butt" stroke-linejoin="miter" stroke-miterlimit="8" stroke-opacity="1" fill="none" fill-rule="evenodd" transform="matrix(1.00001 0 0 -1 447.178 349.318)"/><path d="M716.59 359.692 749.395 437.086" stroke="#000000" stroke-width="2.39529" stroke-linecap="butt" stroke-linejoin="miter" stroke-miterlimit="8" stroke-opacity="1" fill="none" fill-rule="evenodd" transform="matrix(1.00001 0 0 1 -269.417 -10.4712)"/><path d="M0 0 33.949 76.6962" stroke="#000000" stroke-width="2.39529" stroke-linecap="butt" stroke-linejoin="miter" stroke-miterlimit="8" stroke-opacity="1" fill="none" fill-rule="evenodd" transform="matrix(1.00001 0 0 -1 446.38 400.368)"/><path d="M0 0 33.949 25.461" stroke="#000000" stroke-width="2.39529" stroke-linecap="butt" stroke-linejoin="miter" stroke-miterlimit="8" stroke-opacity="1" fill="none" fill-rule="evenodd" transform="matrix(1.00001 0 0 -1 446.38 400.232)"/><path d="M715.792 410.792 749.741 437.135" stroke="#000000" stroke-width="2.39529" stroke-linecap="butt" stroke-linejoin="miter" stroke-miterlimit="8" stroke-opacity="1" fill="none" fill-rule="evenodd" transform="matrix(1.00001 0 0 1 -269.417 -10.4712)"/><path d="M783.658 334.143 816.282 359.789" stroke="#000000" stroke-width="2.39529" stroke-linecap="butt" stroke-linejoin="miter" stroke-miterlimit="8" stroke-opacity="1" fill="none" fill-rule="evenodd" transform="matrix(1.00001 0 0 1 -269.417 -10.4712)"/><path d="M0 0 32.6247 25.5891" stroke="#000000" stroke-width="2.39529" stroke-linecap="butt" stroke-linejoin="miter" stroke-miterlimit="8" stroke-opacity="1" fill="none" fill-rule="evenodd" transform="matrix(1.00001 0 0 -1 514.247 374.81)"/><path d="M0 0 32.6247 77.3937" stroke="#000000" stroke-width="2.39529" stroke-linecap="butt" stroke-linejoin="miter" stroke-miterlimit="8" stroke-opacity="1" fill="none" fill-rule="evenodd" transform="matrix(1.00001 0 0 -1 514.247 426.615)"/><path d="M816.394 411.191C816.394 401.711 823.899 394.025 833.161 394.025 842.423 394.025 849.928 401.711 849.928 411.191 849.928 420.672 842.423 428.357 833.161 428.357 823.899 428.357 816.394 420.672 816.394 411.191Z" stroke="#042433" stroke-width="2.39529" stroke-linecap="butt" stroke-linejoin="miter" stroke-miterlimit="8" stroke-opacity="1" fill="#FFFFFF" fill-rule="evenodd" fill-opacity="1" transform="matrix(1.00001 0 0 1 -269.417 -10.4712)"/><path d="M783.658 334.143 816.282 410.839" stroke="#000000" stroke-width="2.39529" stroke-linecap="butt" stroke-linejoin="miter" stroke-miterlimit="8" stroke-opacity="1" fill="none" fill-rule="evenodd" transform="matrix(1.00001 0 0 1 -269.417 -10.4712)"/><path d="M783.658 385.242 816.282 410.703" stroke="#000000" stroke-width="2.39529" stroke-linecap="butt" stroke-linejoin="miter" stroke-miterlimit="8" stroke-opacity="1" fill="none" fill-rule="evenodd" transform="matrix(1.00001 0 0 1 -269.417 -10.4712)"/><path d="M0 0 32.6247 26.3436" stroke="#000000" stroke-width="2.39529" stroke-linecap="butt" stroke-linejoin="miter" stroke-miterlimit="8" stroke-opacity="1" fill="none" fill-rule="evenodd" transform="matrix(1.00001 0 0 -1 514.247 426.664)"/><text fill="#000000" fill-opacity="1" font-family="Times New Roman,Times New Roman_MSFontService,sans-serif" font-style="normal" font-variant="normal" font-weight="700" font-stretch="normal" font-size="28" text-anchor="start" direction="ltr" writing-mode="lr-tb" unicode-bidi="normal" text-decoration="none" transform="matrix(0.798434 0 0 0.798429 393.463 469)">Deep Neural Network</text><path d="M880.668 309.391C880.668 308.73 881.203 308.194 881.865 308.194L886.656 308.194C887.318 308.194 887.853 308.73 887.853 309.391L887.853 330.949C887.853 331.61 887.318 332.147 886.656 332.147L881.865 332.147C881.203 332.147 880.668 331.61 880.668 330.949Z" fill="#FFFFFF" fill-rule="evenodd" fill-opacity="1" transform="matrix(1.00001 0 0 1 -269.417 -10.4712)"/><path d="M502.611 326.158C502.611 318.662 508.688 312.585 516.185 312.585L619.98 312.585C627.477 312.585 633.554 318.662 633.554 326.158L633.554 380.452C633.554 387.948 627.477 394.025 619.98 394.025L516.185 394.025C508.688 394.025 502.611 387.948 502.611 380.452Z" stroke="#FFC5C1" stroke-width="2.39529" stroke-linecap="butt" stroke-linejoin="miter" stroke-miterlimit="8" stroke-opacity="1" fill="none" fill-rule="evenodd" transform="matrix(1.00001 0 0 1 -269.417 -10.4712)"/><text fill="#FD0B00" fill-opacity="1" font-family="Times New Roman,Times New Roman_MSFontService,sans-serif" font-style="normal" font-variant="normal" font-weight="700" font-stretch="normal" font-size="24" text-anchor="start" direction="ltr" writing-mode="lr-tb" unicode-bidi="normal" text-decoration="none" transform="matrix(0.798434 0 0 0.798429 261.84 327)">Requires </text><text fill="#FD0B00" fill-opacity="1" font-family="Times New Roman,Times New Roman_MSFontService,sans-serif" font-style="normal" font-variant="normal" font-weight="700" font-stretch="normal" font-size="24" text-anchor="start" direction="ltr" writing-mode="lr-tb" unicode-bidi="normal" text-decoration="none" transform="matrix(0.798434 0 0 0.798429 252.187 350)">Substantial </text><text fill="#FD0B00" fill-opacity="1" font-family="Times New Roman,Times New Roman_MSFontService,sans-serif" font-style="normal" font-variant="normal" font-weight="700" font-stretch="normal" font-size="24" text-anchor="start" direction="ltr" writing-mode="lr-tb" unicode-bidi="normal" text-decoration="none" transform="matrix(0.798434 0 0 0.798429 268.555 372)">Energy</text><path d="M900.421 332.21 884.859 305.787C884.26 304.737 882.704 304.737 882.105 305.787L866.503 332.21C865.905 333.26 866.663 334.542 867.901 334.542L883.462 334.542 899.023 334.542C900.261 334.542 901.019 333.26 900.421 332.21ZM882.264 312.004 884.66 312.004 884.66 325.604 882.264 325.604 882.264 312.004ZM883.462 331.045C882.344 331.045 881.474 330.19 881.474 329.102 881.474 328.014 882.344 327.159 883.462 327.159 884.58 327.159 885.45 328.014 885.45 329.102 885.45 330.19 884.58 331.045 883.462 331.045Z" fill="#FF0000" fill-rule="evenodd" fill-opacity="1" transform="matrix(1.00001 0 0 1 -269.417 -10.4712)"/><path d="M635.151 346.918 640.74 353.704 635.151 360.491Z" stroke="#FFC5C1" stroke-width="2.39529" stroke-linecap="butt" stroke-linejoin="miter" stroke-miterlimit="8" stroke-opacity="1" fill="#FFC5C1" fill-rule="evenodd" fill-opacity="1" transform="matrix(1.00001 0 0 1 -269.417 -10.4712)"/><path d="M918.194 341.329C918.194 324.793 931.599 311.387 948.135 311.387L1146.15 311.387C1162.68 311.387 1176.09 324.793 1176.09 341.329L1176.09 461.092C1176.09 477.628 1162.68 491.034 1146.15 491.034L948.135 491.034C931.599 491.034 918.194 477.628 918.194 461.092Z" fill="#F2CFEE" fill-rule="evenodd" fill-opacity="1" transform="matrix(1.00001 0 0 1 -269.417 -10.4712)"/><text fill="#000000" fill-opacity="1" font-family="Times New Roman,Times New Roman_MSFontService,sans-serif" font-style="normal" font-variant="normal" font-weight="700" font-stretch="normal" font-size="28" text-anchor="start" direction="ltr" writing-mode="lr-tb" unicode-bidi="normal" text-decoration="none" transform="matrix(0.798434 0 0 0.798429 706.374 469)">HDC</text><text fill="#000000" fill-opacity="1" font-family="Times New Roman,Times New Roman_MSFontService,sans-serif" font-style="normal" font-variant="normal" font-weight="700" font-stretch="normal" font-size="28" text-anchor="start" direction="ltr" writing-mode="lr-tb" unicode-bidi="normal" text-decoration="none" transform="matrix(0.798434 0 0 0.798429 756.076 469)">-</text><text fill="#000000" fill-opacity="1" font-family="Times New Roman,Times New Roman_MSFontService,sans-serif" font-style="normal" font-variant="normal" font-weight="700" font-stretch="normal" font-size="28" text-anchor="start" direction="ltr" writing-mode="lr-tb" unicode-bidi="normal" text-decoration="none" transform="matrix(0.798434 0 0 0.798429 763.462 469)">X (Ours)</text><path d="M1140.16 318.973C1140.16 310.373 1147.13 303.403 1155.73 303.403 1164.33 303.403 1171.3 310.373 1171.3 318.973 1171.3 327.572 1164.33 334.542 1155.73 334.542 1147.13 334.542 1140.16 327.572 1140.16 318.973Z" fill="#00B050" fill-rule="evenodd" fill-opacity="1" transform="matrix(1.00001 0 0 1 -269.417 -10.4712)"/><path d="M1164.61 312.984 1152.67 324.298 1146.93 318.407 1144.95 320.3 1152.58 328.154 1154.58 326.285 1166.51 314.948Z" fill="#FFFFFF" fill-rule="evenodd" fill-opacity="1" transform="matrix(1.00001 0 0 1 -269.417 -10.4712)"/><path d="M1185.27 325.493C1185.27 317.923 1191.41 311.787 1198.98 311.787L1302.5 311.787C1310.07 311.787 1316.21 317.923 1316.21 325.493L1316.21 380.318C1316.21 387.888 1310.07 394.025 1302.5 394.025L1198.98 394.025C1191.41 394.025 1185.27 387.888 1185.27 380.318Z" stroke="#C1DEC1" stroke-width="2.39529" stroke-linecap="butt" stroke-linejoin="miter" stroke-miterlimit="8" stroke-opacity="1" fill="none" fill-rule="evenodd" transform="matrix(1.00001 0 0 1 -269.417 -10.4712)"/><text fill="#3B7D23" fill-opacity="1" font-family="Times New Roman,Times New Roman_MSFontService,sans-serif" font-style="normal" font-variant="normal" font-weight="700" font-stretch="normal" font-size="24" text-anchor="start" direction="ltr" writing-mode="lr-tb" unicode-bidi="normal" text-decoration="none" transform="matrix(0.798434 0 0 0.798429 944.435 327)">Requires </text><text fill="#3B7D23" fill-opacity="1" font-family="Times New Roman,Times New Roman_MSFontService,sans-serif" font-style="normal" font-variant="normal" font-weight="700" font-stretch="normal" font-size="24" text-anchor="start" direction="ltr" writing-mode="lr-tb" unicode-bidi="normal" text-decoration="none" transform="matrix(0.798434 0 0 0.798429 936.578 350)">Much Less </text><text fill="#3B7D23" fill-opacity="1" font-family="Times New Roman,Times New Roman_MSFontService,sans-serif" font-style="normal" font-variant="normal" font-weight="700" font-stretch="normal" font-size="24" text-anchor="start" direction="ltr" writing-mode="lr-tb" unicode-bidi="normal" text-decoration="none" transform="matrix(0.798434 0 0 0.798429 951.15 372)">Energy</text><path d="M952.127 337.336C952.127 334.69 954.275 332.546 956.918 332.546L1021.59 332.546C1024.23 332.546 1026.38 334.69 1026.38 337.336L1026.38 356.499C1026.38 359.145 1024.23 361.289 1021.59 361.289L956.918 361.289C954.275 361.289 952.127 359.145 952.127 356.499Z" stroke="#000000" stroke-width="2.39529" stroke-linecap="butt" stroke-linejoin="miter" stroke-miterlimit="8" stroke-opacity="1" fill="#FFFFFF" fill-rule="evenodd" fill-opacity="1" transform="matrix(1.00001 0 0 1 -269.417 -10.4712)"/><path d="M956.918 341.329C956.918 338.683 959.065 336.538 961.708 336.538L1025.58 336.538C1028.23 336.538 1030.37 338.683 1030.37 341.329L1030.37 360.491C1030.37 363.137 1028.23 365.281 1025.58 365.281L961.708 365.281C959.065 365.281 956.918 363.137 956.918 360.491Z" stroke="#000000" stroke-width="2.39529" stroke-linecap="butt" stroke-linejoin="miter" stroke-miterlimit="8" stroke-opacity="1" fill="#FFFFFF" fill-rule="evenodd" fill-opacity="1" transform="matrix(1.00001 0 0 1 -269.417 -10.4712)"/><path d="M960.91 345.187C960.91 342.616 962.994 340.53 965.564 340.53L1030.51 340.53C1033.08 340.53 1035.16 342.616 1035.16 345.187L1035.16 363.818C1035.16 366.39 1033.08 368.475 1030.51 368.475L965.564 368.475C962.994 368.475 960.91 366.39 960.91 363.818Z" stroke="#000000" stroke-width="2.39529" stroke-linecap="butt" stroke-linejoin="miter" stroke-miterlimit="8" stroke-opacity="1" fill="#FFFFFF" fill-rule="evenodd" fill-opacity="1" transform="matrix(1.00001 0 0 1 -269.417 -10.4712)"/><text fill="#000000" fill-opacity="1" font-family="Times New Roman,Times New Roman_MSFontService,sans-serif" font-style="normal" font-variant="normal" font-weight="700" font-stretch="normal" font-size="12" text-anchor="start" direction="ltr" writing-mode="lr-tb" unicode-bidi="normal" text-decoration="none" transform="matrix(0.798434 0 0 0.798429 711.899 347)">ID</text><text fill="#000000" fill-opacity="1" font-family="Times New Roman,Times New Roman_MSFontService,sans-serif" font-style="normal" font-variant="normal" font-weight="700" font-stretch="normal" font-size="12" text-anchor="start" direction="ltr" writing-mode="lr-tb" unicode-bidi="normal" text-decoration="none" transform="matrix(0.798434 0 0 0.798429 722.678 347)">-</text><text fill="#000000" fill-opacity="1" font-family="Times New Roman,Times New Roman_MSFontService,sans-serif" font-style="normal" font-variant="normal" font-weight="700" font-stretch="normal" font-size="12" text-anchor="start" direction="ltr" writing-mode="lr-tb" unicode-bidi="normal" text-decoration="none" transform="matrix(0.798434 0 0 0.798429 725.872 347)">HVs</text><path d="M1056.72 337.336C1056.72 334.69 1058.87 332.546 1061.51 332.546L1125.39 332.546C1128.03 332.546 1130.18 334.69 1130.18 337.336L1130.18 356.499C1130.18 359.145 1128.03 361.289 1125.39 361.289L1061.51 361.289C1058.87 361.289 1056.72 359.145 1056.72 356.499Z" stroke="#000000" stroke-width="2.39529" stroke-linecap="butt" stroke-linejoin="miter" stroke-miterlimit="8" stroke-opacity="1" fill="#FFFFFF" fill-rule="evenodd" fill-opacity="1" transform="matrix(1.00001 0 0 1 -269.417 -10.4712)"/><path d="M1060.71 341.329C1060.71 338.683 1062.86 336.538 1065.5 336.538L1130.18 336.538C1132.82 336.538 1134.97 338.683 1134.97 341.329L1134.97 360.491C1134.97 363.137 1132.82 365.281 1130.18 365.281L1065.5 365.281C1062.86 365.281 1060.71 363.137 1060.71 360.491Z" stroke="#000000" stroke-width="2.39529" stroke-linecap="butt" stroke-linejoin="miter" stroke-miterlimit="8" stroke-opacity="1" fill="#FFFFFF" fill-rule="evenodd" fill-opacity="1" transform="matrix(1.00001 0 0 1 -269.417 -10.4712)"/><path d="M1065.5 345.321C1065.5 342.675 1067.65 340.53 1070.29 340.53L1134.17 340.53C1136.81 340.53 1138.96 342.675 1138.96 345.321L1138.96 364.483C1138.96 367.129 1136.81 369.274 1134.17 369.274L1070.29 369.274C1067.65 369.274 1065.5 367.129 1065.5 364.483Z" stroke="#000000" stroke-width="2.39529" stroke-linecap="butt" stroke-linejoin="miter" stroke-miterlimit="8" stroke-opacity="1" fill="#FFFFFF" fill-rule="evenodd" fill-opacity="1" transform="matrix(1.00001 0 0 1 -269.417 -10.4712)"/><text fill="#000000" fill-opacity="1" font-family="Times New Roman,Times New Roman_MSFontService,sans-serif" font-style="normal" font-variant="normal" font-weight="700" font-stretch="normal" font-size="12" text-anchor="start" direction="ltr" writing-mode="lr-tb" unicode-bidi="normal" text-decoration="none" transform="matrix(0.798434 0 0 0.798429 810.562 348)">Level</text><text fill="#000000" fill-opacity="1" font-family="Times New Roman,Times New Roman_MSFontService,sans-serif" font-style="normal" font-variant="normal" font-weight="700" font-stretch="normal" font-size="12" text-anchor="start" direction="ltr" writing-mode="lr-tb" unicode-bidi="normal" text-decoration="none" transform="matrix(0.798434 0 0 0.798429 832.718 348)">-</text><text fill="#000000" fill-opacity="1" font-family="Times New Roman,Times New Roman_MSFontService,sans-serif" font-style="normal" font-variant="normal" font-weight="700" font-stretch="normal" font-size="12" text-anchor="start" direction="ltr" writing-mode="lr-tb" unicode-bidi="normal" text-decoration="none" transform="matrix(0.798434 0 0 0.798429 835.912 348)">HVs</text><path d="M1008.82 382.048C1008.82 379.402 1010.96 377.258 1013.61 377.258L1080.67 377.258C1083.32 377.258 1085.46 379.402 1085.46 382.048L1085.46 401.211C1085.46 403.857 1083.32 406.001 1080.67 406.001L1013.61 406.001C1010.96 406.001 1008.82 403.857 1008.82 401.211Z" stroke="#000000" stroke-width="2.39529" stroke-linecap="butt" stroke-linejoin="miter" stroke-miterlimit="8" stroke-opacity="1" fill="#FFFFFF" fill-rule="evenodd" fill-opacity="1" transform="matrix(1.00001 0 0 1 -269.417 -10.4712)"/><text fill="#000000" fill-opacity="1" font-family="Times New Roman,Times New Roman_MSFontService,sans-serif" font-style="normal" font-variant="normal" font-weight="700" font-stretch="normal" font-size="12" text-anchor="start" direction="ltr" writing-mode="lr-tb" unicode-bidi="normal" text-decoration="none" transform="matrix(0.798434 0 0 0.798429 753.721 385)">Sample</text><text fill="#000000" fill-opacity="1" font-family="Times New Roman,Times New Roman_MSFontService,sans-serif" font-style="normal" font-variant="normal" font-weight="700" font-stretch="normal" font-size="12" text-anchor="start" direction="ltr" writing-mode="lr-tb" unicode-bidi="normal" text-decoration="none" transform="matrix(0.798434 0 0 0.798429 784.062 385)">-</text><text fill="#000000" fill-opacity="1" font-family="Times New Roman,Times New Roman_MSFontService,sans-serif" font-style="normal" font-variant="normal" font-weight="700" font-stretch="normal" font-size="12" text-anchor="start" direction="ltr" writing-mode="lr-tb" unicode-bidi="normal" text-decoration="none" transform="matrix(0.798434 0 0 0.798429 787.255 385)">HV</text><path d="M1182.87 360.491 1177.28 353.305 1182.87 346.119Z" stroke="#C1DEC2" stroke-width="2.39529" stroke-linecap="butt" stroke-linejoin="miter" stroke-miterlimit="8" stroke-opacity="1" fill="#C1DEC2" fill-rule="evenodd" fill-opacity="1" transform="matrix(1.00001 0 0 1 -269.417 -10.4712)"/><path d="M918.673 495.395 1072.8 592.481 1070.25 596.534 916.118 499.448ZM1073.33 587.151 1081.66 600.891 1065.67 599.311Z" fill="#000000" fill-rule="nonzero" fill-opacity="1" transform="matrix(1.00001 0 0 1 -269.417 -10.4712)"/><path d="M1.28773-2.01969 153.472 95.0115 150.896 99.0507-1.28773 2.01969ZM154.027 89.6844 162.282 103.469 146.301 101.802Z" fill="#000000" fill-rule="nonzero" fill-opacity="1" transform="matrix(-1.00001 0 0 1 630.618 486.95)"/><path d="M574.869 612.529C574.869 606.282 579.934 601.217 586.18 601.217L889.314 601.217C895.566 601.217 900.628 606.282 900.628 612.529L900.628 657.772C900.628 664.019 895.566 669.084 889.314 669.084L586.18 669.084C579.934 669.084 574.869 664.019 574.869 657.772Z" fill="#DCEAF7" fill-rule="evenodd" fill-opacity="1" transform="matrix(1.00001 0 0 1 -269.417 -10.4712)"/><text fill="#000000" fill-opacity="1" font-family="Times New Roman,Times New Roman_MSFontService,sans-serif" font-style="normal" font-variant="normal" font-weight="700" font-stretch="normal" font-size="28" text-anchor="start" direction="ltr" writing-mode="lr-tb" unicode-bidi="normal" text-decoration="none" transform="matrix(0.798434 0 0 0.798429 351.682 633)">No abnormally detected.</text><path d="M918.194 612.395C918.194 606.222 923.2 601.217 929.372 601.217L1233.57 601.217C1239.75 601.217 1244.75 606.222 1244.75 612.395L1244.75 657.107C1244.75 663.281 1239.75 668.285 1233.57 668.285L929.372 668.285C923.2 668.285 918.194 663.281 918.194 657.107Z" fill="#FBE3D6" fill-rule="evenodd" fill-opacity="1" transform="matrix(1.00001 0 0 1 -269.417 -10.4712)"/><text fill="#000000" fill-opacity="1" font-family="Times New Roman,Times New Roman_MSFontService,sans-serif" font-style="normal" font-variant="normal" font-weight="700" font-stretch="normal" font-size="28" text-anchor="start" direction="ltr" writing-mode="lr-tb" unicode-bidi="normal" text-decoration="none" transform="matrix(0.798434 0 0 0.798429 716.083 619)">Potential … disease, </text><text fill="#000000" fill-opacity="1" font-family="Times New Roman,Times New Roman_MSFontService,sans-serif" font-style="normal" font-variant="normal" font-weight="700" font-stretch="normal" font-size="28" text-anchor="start" direction="ltr" writing-mode="lr-tb" unicode-bidi="normal" text-decoration="none" transform="matrix(0.798434 0 0 0.798429 670.277 645)">consult medical professionals.</text><path d="M920.781 595.999 916.653 588.868 916.653 588.571C917.012 578.706 909.227 570.447 899.287 570.091 889.346 569.734 881.027 577.399 880.668 587.263 880.668 587.679 880.668 588.155 880.668 588.571 880.668 594.216 883.238 599.504 887.734 602.951L887.734 617.984 906.656 617.984 906.656 610.854 909.587 610.854C913.475 610.854 916.653 607.705 916.653 603.842 916.653 603.783 916.653 603.783 916.653 603.723L916.653 600.158 919.288 600.158C920.844 599.98 922.218 598.197 920.781 595.999ZM883.358 582.628 886.656 582.628 886.656 580.251C885.993 579.776 885.873 578.825 886.352 578.172 886.831 577.518 887.79 577.399 888.452 577.874 889.107 578.35 889.227 579.301 888.748 579.954 888.692 580.073 888.572 580.192 888.452 580.251L888.452 582.628 890.847 582.628 890.847 586.788C891.502 587.263 891.622 588.214 891.143 588.868 890.664 589.521 889.706 589.64 889.051 589.165 888.388 588.689 888.269 587.739 888.748 587.085 888.811 586.966 888.931 586.847 889.051 586.788L889.051 584.411 882.823 584.411C882.999 583.817 883.119 583.222 883.358 582.628ZM900.005 592.671C899.167 592.671 898.512 592.017 898.512 591.185 898.512 591.126 898.512 591.007 898.512 590.948L896.956 589.403 894.44 591.898 894.44 596.296C895.095 596.771 895.215 597.722 894.736 598.375 894.257 599.029 893.299 599.148 892.644 598.672 891.981 598.197 891.862 597.246 892.341 596.593 892.404 596.474 892.524 596.355 892.644 596.296L892.644 595.701 888.628 595.701 885.817 592.433C884.979 592.493 884.26 591.898 884.197 591.066 884.141 590.235 884.74 589.521 885.578 589.462 886.416 589.403 887.135 589.997 887.191 590.829 887.191 590.948 887.191 591.126 887.191 591.245L889.466 593.919 892.644 593.919 892.644 591.185 895.694 588.155 893.842 586.253 893.842 575.498C893.179 575.022 893.059 574.071 893.538 573.418 894.017 572.764 894.975 572.646 895.638 573.121 896.293 573.596 896.413 574.547 895.933 575.2 895.878 575.319 895.758 575.438 895.638 575.498L895.638 577.28 900.429 577.28 900.429 581.44C901.083 581.915 901.203 582.866 900.724 583.52 900.245 584.173 899.287 584.292 898.632 583.817 897.97 583.341 897.85 582.391 898.329 581.737 898.393 581.618 898.512 581.499 898.632 581.44L898.632 579.063 895.638 579.063 895.638 585.54 899.83 589.7C899.886 589.7 899.95 589.7 900.005 589.7 900.844 589.7 901.507 590.353 901.507 591.185 901.507 592.017 900.844 592.671 900.005 592.671ZM907.311 580.667C906.473 580.667 905.818 580.014 905.818 579.182 905.818 579.122 905.818 579.122 905.818 579.063L903.423 576.924 903.423 572.586C904.022 572.764 904.62 573.002 905.219 573.24L905.219 576.151 907.016 577.756C907.135 577.756 907.191 577.756 907.311 577.756 908.149 577.756 908.804 578.409 908.804 579.241 908.804 580.073 908.149 580.667 907.311 580.667Z" fill="#000000" fill-rule="evenodd" fill-opacity="1" transform="matrix(1.00001 0 0 1 -269.417 -10.4712)"/><path d="M1264.9 595.999 1260.78 588.868 1260.78 588.571C1261.14 578.706 1253.35 570.447 1243.41 570.091 1233.47 569.734 1225.15 577.399 1224.79 587.263 1224.79 587.679 1224.79 588.155 1224.79 588.571 1224.79 594.216 1227.36 599.504 1231.86 602.951L1231.86 617.984 1250.78 617.984 1250.78 610.854 1253.71 610.854C1257.6 610.854 1260.78 607.705 1260.78 603.842 1260.78 603.783 1260.78 603.783 1260.78 603.723L1260.78 600.158 1263.41 600.158C1264.97 599.98 1266.34 598.197 1264.9 595.999ZM1227.48 582.628 1230.78 582.628 1230.78 580.251C1230.12 579.776 1230 578.825 1230.48 578.172 1230.95 577.518 1231.91 577.399 1232.58 577.874 1233.23 578.35 1233.35 579.301 1232.87 579.954 1232.81 580.073 1232.7 580.192 1232.58 580.251L1232.58 582.628 1234.97 582.628 1234.97 586.788C1235.63 587.263 1235.74 588.214 1235.27 588.868 1234.79 589.521 1233.83 589.64 1233.17 589.165 1232.51 588.689 1232.39 587.739 1232.87 587.085 1232.93 586.966 1233.05 586.847 1233.17 586.788L1233.17 584.411 1226.95 584.411C1227.12 583.817 1227.24 583.222 1227.48 582.628ZM1244.13 592.671C1243.29 592.671 1242.64 592.017 1242.64 591.185 1242.64 591.126 1242.64 591.007 1242.64 590.948L1241.08 589.403 1238.56 591.898 1238.56 596.296C1239.22 596.771 1239.34 597.722 1238.86 598.375 1238.38 599.029 1237.42 599.148 1236.77 598.672 1236.1 598.197 1235.98 597.246 1236.46 596.593 1236.53 596.474 1236.65 596.355 1236.77 596.296L1236.77 595.701 1232.75 595.701 1229.94 592.433C1229.1 592.493 1228.38 591.898 1228.32 591.066 1228.26 590.235 1228.86 589.521 1229.7 589.462 1230.54 589.403 1231.26 589.997 1231.31 590.829 1231.31 590.948 1231.31 591.126 1231.31 591.245L1233.59 593.919 1236.77 593.919 1236.77 591.185 1239.82 588.155 1237.96 586.253 1237.96 575.498C1237.3 575.022 1237.18 574.071 1237.66 573.418 1238.14 572.764 1239.1 572.646 1239.76 573.121 1240.42 573.596 1240.54 574.547 1240.06 575.2 1240 575.319 1239.88 575.438 1239.76 575.498L1239.76 577.28 1244.55 577.28 1244.55 581.44C1245.21 581.915 1245.33 582.866 1244.85 583.52 1244.37 584.173 1243.41 584.292 1242.76 583.817 1242.09 583.341 1241.97 582.391 1242.45 581.737 1242.52 581.618 1242.64 581.499 1242.76 581.44L1242.76 579.063 1239.76 579.063 1239.76 585.54 1243.95 589.7C1244.01 589.7 1244.07 589.7 1244.13 589.7 1244.97 589.7 1245.63 590.353 1245.63 591.185 1245.63 592.017 1244.97 592.671 1244.13 592.671ZM1251.43 580.667C1250.6 580.667 1249.94 580.014 1249.94 579.182 1249.94 579.122 1249.94 579.122 1249.94 579.063L1247.55 576.924 1247.55 572.586C1248.14 572.764 1248.74 573.002 1249.34 573.24L1249.34 576.151 1251.14 577.756C1251.26 577.756 1251.31 577.756 1251.43 577.756 1252.27 577.756 1252.93 578.409 1252.93 579.241 1252.93 580.073 1252.27 580.667 1251.43 580.667Z" fill="#000000" fill-rule="evenodd" fill-opacity="1" transform="matrix(1.00001 0 0 1 -269.417 -10.4712)"/><path d="M1185.27 424.365C1185.27 416.869 1191.34 410.792 1198.84 410.792L1302.64 410.792C1310.13 410.792 1316.21 416.869 1316.21 424.365L1316.21 478.658C1316.21 486.155 1310.13 492.232 1302.64 492.232L1198.84 492.232C1191.34 492.232 1185.27 486.155 1185.27 478.658Z" stroke="#C1DEC1" stroke-width="2.39529" stroke-linecap="butt" stroke-linejoin="miter" stroke-miterlimit="8" stroke-opacity="1" fill="none" fill-rule="evenodd" transform="matrix(1.00001 0 0 1 -269.417 -10.4712)"/><text fill="#3B7D23" fill-opacity="1" font-family="Times New Roman,Times New Roman_MSFontService,sans-serif" font-style="normal" font-variant="normal" font-weight="700" font-stretch="normal" font-size="24" text-anchor="start" direction="ltr" writing-mode="lr-tb" unicode-bidi="normal" text-decoration="none" transform="matrix(0.798434 0 0 0.798429 942.567 425)">Performs </text><text fill="#3B7D23" fill-opacity="1" font-family="Times New Roman,Times New Roman_MSFontService,sans-serif" font-style="normal" font-variant="normal" font-weight="700" font-stretch="normal" font-size="24" text-anchor="start" direction="ltr" writing-mode="lr-tb" unicode-bidi="normal" text-decoration="none" transform="matrix(0.798434 0 0 0.798429 940.275 448)">on Simple </text><text fill="#3B7D23" fill-opacity="1" font-family="Times New Roman,Times New Roman_MSFontService,sans-serif" font-style="normal" font-variant="normal" font-weight="700" font-stretch="normal" font-size="24" text-anchor="start" direction="ltr" writing-mode="lr-tb" unicode-bidi="normal" text-decoration="none" transform="matrix(0.798434 0 0 0.798429 939.046 470)">Hardware</text><path d="M1182.87 458.698 1177.28 451.512 1182.87 444.326Z" stroke="#C1DEC2" stroke-width="2.39529" stroke-linecap="butt" stroke-linejoin="miter" stroke-miterlimit="8" stroke-opacity="1" fill="#C1DEC2" fill-rule="evenodd" fill-opacity="1" transform="matrix(1.00001 0 0 1 -269.417 -10.4712)"/><path d="M504.208 423.567C504.208 416.07 510.285 409.993 517.781 409.993L621.577 409.993C629.074 409.993 635.151 416.07 635.151 423.567L635.151 477.86C635.151 485.356 629.074 491.433 621.577 491.433L517.781 491.433C510.285 491.433 504.208 485.356 504.208 477.86Z" stroke="#FFC5C1" stroke-width="2.39529" stroke-linecap="butt" stroke-linejoin="miter" stroke-miterlimit="8" stroke-opacity="1" fill="none" fill-rule="evenodd" transform="matrix(1.00001 0 0 1 -269.417 -10.4712)"/><text fill="#FD0B00" fill-opacity="1" font-family="Times New Roman,Times New Roman_MSFontService,sans-serif" font-style="normal" font-variant="normal" font-weight="700" font-stretch="normal" font-size="24" text-anchor="start" direction="ltr" writing-mode="lr-tb" unicode-bidi="normal" text-decoration="none" transform="matrix(0.798434 0 0 0.798429 263.334 425)">Requires </text><text fill="#FD0B00" fill-opacity="1" font-family="Times New Roman,Times New Roman_MSFontService,sans-serif" font-style="normal" font-variant="normal" font-weight="700" font-stretch="normal" font-size="24" text-anchor="start" direction="ltr" writing-mode="lr-tb" unicode-bidi="normal" text-decoration="none" transform="matrix(0.798434 0 0 0.798429 258.974 447)">Advanced </text><text fill="#FD0B00" fill-opacity="1" font-family="Times New Roman,Times New Roman_MSFontService,sans-serif" font-style="normal" font-variant="normal" font-weight="700" font-stretch="normal" font-size="24" text-anchor="start" direction="ltr" writing-mode="lr-tb" unicode-bidi="normal" text-decoration="none" transform="matrix(0.798434 0 0 0.798429 279.63 469)">GPU</text><path d="M636.747 444.326 642.336 451.512 636.747 458.698Z" stroke="#FFC5C1" stroke-width="2.39529" stroke-linecap="butt" stroke-linejoin="miter" stroke-miterlimit="8" stroke-opacity="1" fill="#FFC5C1" fill-rule="evenodd" fill-opacity="1" transform="matrix(1.00001 0 0 1 -269.417 -10.4712)"/><text fill="#000000" fill-opacity="1" font-family="Times New Roman,Times New Roman_MSFontService,sans-serif" font-style="normal" font-variant="normal" font-weight="700" font-stretch="normal" font-size="22" text-anchor="start" direction="ltr" writing-mode="lr-tb" unicode-bidi="normal" text-decoration="none" transform="matrix(0.798434 0 0 0.798429 632.135 398)">or</text><path d="M978.874 421.571C978.874 418.264 979.321 415.582 979.872 415.582L1046.54 415.582C1047.09 415.582 1047.54 412.901 1047.54 409.594 1047.54 412.901 1047.99 415.582 1048.54 415.582L1115.21 415.582C1115.76 415.582 1116.2 418.264 1116.2 421.571" stroke="#000000" stroke-width="1.59686" stroke-linecap="butt" stroke-linejoin="miter" stroke-miterlimit="8" stroke-opacity="1" fill="none" fill-rule="evenodd" transform="matrix(1.00001 0 0 1 -269.417 -10.4712)"/><path d="M939.352 429.156C939.352 426.51 941.5 424.365 944.143 424.365L1016 424.365C1018.64 424.365 1020.79 426.51 1020.79 429.156L1020.79 448.318C1020.79 450.964 1018.64 453.109 1016 453.109L944.143 453.109C941.5 453.109 939.352 450.964 939.352 448.318Z" stroke="#000000" stroke-width="2.39529" stroke-linecap="butt" stroke-linejoin="miter" stroke-miterlimit="8" stroke-opacity="1" fill="#FFFFFF" fill-rule="evenodd" fill-opacity="1" transform="matrix(1.00001 0 0 1 -269.417 -10.4712)"/><text fill="#000000" fill-opacity="1" font-family="Times New Roman,Times New Roman_MSFontService,sans-serif" font-style="normal" font-variant="normal" font-weight="700" font-stretch="normal" font-size="12" text-anchor="start" direction="ltr" writing-mode="lr-tb" unicode-bidi="normal" text-decoration="none" transform="matrix(0.798434 0 0 0.798429 685.056 432)">Cluster</text><text fill="#000000" fill-opacity="1" font-family="Times New Roman,Times New Roman_MSFontService,sans-serif" font-style="normal" font-variant="normal" font-weight="700" font-stretch="normal" font-size="12" text-anchor="start" direction="ltr" writing-mode="lr-tb" unicode-bidi="normal" text-decoration="none" transform="matrix(0.798434 0 0 0.798429 715.396 432)">-</text><text fill="#000000" fill-opacity="1" font-family="Times New Roman,Times New Roman_MSFontService,sans-serif" font-style="normal" font-variant="normal" font-weight="700" font-stretch="normal" font-size="12" text-anchor="start" direction="ltr" writing-mode="lr-tb" unicode-bidi="normal" text-decoration="none" transform="matrix(0.798434 0 0 0.798429 718.59 432)">HV</text><text fill="#000000" fill-opacity="1" font-family="Times New Roman,Times New Roman_MSFontService,sans-serif" font-style="normal" font-variant="normal" font-weight="700" font-stretch="normal" font-size="8" text-anchor="start" direction="ltr" writing-mode="lr-tb" unicode-bidi="normal" text-decoration="none" transform="matrix(0.798434 0 0 0.798429 732.962 432)">1</text><path d="M1074.29 429.156C1074.29 426.51 1076.43 424.365 1079.08 424.365L1150.94 424.365C1153.58 424.365 1155.73 426.51 1155.73 429.156L1155.73 448.318C1155.73 450.964 1153.58 453.109 1150.94 453.109L1079.08 453.109C1076.43 453.109 1074.29 450.964 1074.29 448.318Z" stroke="#000000" stroke-width="2.39529" stroke-linecap="butt" stroke-linejoin="miter" stroke-miterlimit="8" stroke-opacity="1" fill="#FFFFFF" fill-rule="evenodd" fill-opacity="1" transform="matrix(1.00001 0 0 1 -269.417 -10.4712)"/><text fill="#000000" fill-opacity="1" font-family="Times New Roman,Times New Roman_MSFontService,sans-serif" font-style="normal" font-variant="normal" font-weight="700" font-stretch="normal" font-size="12" text-anchor="start" direction="ltr" writing-mode="lr-tb" unicode-bidi="normal" text-decoration="none" transform="matrix(0.798434 0 0 0.798429 818.825 432)">Cluster</text><text fill="#000000" fill-opacity="1" font-family="Times New Roman,Times New Roman_MSFontService,sans-serif" font-style="normal" font-variant="normal" font-weight="700" font-stretch="normal" font-size="12" text-anchor="start" direction="ltr" writing-mode="lr-tb" unicode-bidi="normal" text-decoration="none" transform="matrix(0.798434 0 0 0.798429 849.166 432)">-</text><text fill="#000000" fill-opacity="1" font-family="Times New Roman,Times New Roman_MSFontService,sans-serif" font-style="normal" font-variant="normal" font-weight="700" font-stretch="normal" font-size="12" text-anchor="start" direction="ltr" writing-mode="lr-tb" unicode-bidi="normal" text-decoration="none" transform="matrix(0.798434 0 0 0.798429 852.36 432)">HV</text><text fill="#000000" fill-opacity="1" font-family="Times New Roman,Times New Roman_MSFontService,sans-serif" font-style="italic" font-variant="normal" font-weight="700" font-stretch="normal" font-size="8" text-anchor="start" direction="ltr" writing-mode="lr-tb" unicode-bidi="normal" text-decoration="none" transform="matrix(0.798434 0 0 0.798429 866.731 432)">K</text><text fill="#000000" fill-opacity="1" font-family="Times New Roman,Times New Roman_MSFontService,sans-serif" font-style="normal" font-variant="normal" font-weight="700" font-stretch="normal" font-size="18" text-anchor="start" direction="ltr" writing-mode="lr-tb" unicode-bidi="normal" text-decoration="none" transform="matrix(0.798434 0 0 0.798429 770.249 433)">…</text><text fill="#000000" fill-opacity="1" font-family="Times New Roman,Times New Roman_MSFontService,sans-serif" font-style="normal" font-variant="normal" font-weight="700" font-stretch="normal" font-size="12" text-anchor="start" direction="ltr" writing-mode="lr-tb" unicode-bidi="normal" text-decoration="none" transform="matrix(0.798434 0 0 0.798429 756.779 420)">argmin </text><text fill="#000000" fill-opacity="1" font-family="Times New Roman,Times New Roman_MSFontService,sans-serif" font-style="italic" font-variant="normal" font-weight="700" font-stretch="normal" font-size="12" text-anchor="start" direction="ltr" writing-mode="lr-tb" unicode-bidi="normal" text-decoration="none" transform="matrix(0.798434 0 0 0.798429 788.916 420)">d</text><text fill="#000000" fill-opacity="1" font-family="Times New Roman,Times New Roman_MSFontService,sans-serif" font-style="italic" font-variant="normal" font-weight="700" font-stretch="normal" font-size="8" text-anchor="start" direction="ltr" writing-mode="lr-tb" unicode-bidi="normal" text-decoration="none" transform="matrix(0.798434 0 0 0.798429 793.707 420)">H</text><path d="M997.238 368.076 1046.94 376.854" stroke="#000000" stroke-width="1.59686" stroke-linecap="butt" stroke-linejoin="miter" stroke-miterlimit="8" stroke-opacity="1" fill="none" fill-rule="evenodd" transform="matrix(1.00001 0 0 1 -269.417 -10.4712)"/><path d="M0 0 54.6474 8.55214" stroke="#000000" stroke-width="1.59686" stroke-linecap="butt" stroke-linejoin="miter" stroke-miterlimit="8" stroke-opacity="1" fill="none" fill-rule="evenodd" transform="matrix(-1.00001 0 0 1 831.976 358.403)"/><text fill="#000000" fill-opacity="1" font-family="Times New Roman,Times New Roman_MSFontService,sans-serif" font-style="normal" font-variant="normal" font-weight="700" font-stretch="normal" font-size="22" text-anchor="start" direction="ltr" writing-mode="lr-tb" unicode-bidi="normal" text-decoration="none" transform="matrix(0.798434 0 0 0.798429 610.889 517)">Classify</text></g></g></g></g></g></svg>