<svg xmlns="http://www.w3.org/2000/svg" xmlns:xlink="http://www.w3.org/1999/xlink" style="max-height: 500px" version="1.0" id="svg11300" viewBox="0 0 300 260" width="300" height="260">
  <title id="title3004">Suru Icon Theme Template</title>
  
  <defs id="defs3">
    <filter height="1.0227146" y="-0.011357288" width="1.0289086" x="-0.014454287" id="filter4346" style="color-interpolation-filters:sRGB">
      <feGaussianBlur id="feGaussianBlur4348" stdDeviation="2.120027"/>
    </filter>
    <filter height="1.0908583" y="-0.045429151" width="1.1156343" x="-0.057817147" id="filter4380" style="color-interpolation-filters:sRGB">
      <feGaussianBlur id="feGaussianBlur4382" stdDeviation="8.4801079"/>
    </filter>
    <linearGradient id="linearGradient927">
      <stop id="stop923" offset="0" style="stop-color:#ffffff;stop-opacity:1;"/>
      <stop style="stop-color:#ffffff;stop-opacity:0.09803922" offset="0.125" id="stop933"/>
      <stop style="stop-color:#ffffff;stop-opacity:0.09803922" offset="0.92500001" id="stop931"/>
      <stop id="stop925" offset="1" style="stop-color:#ffffff;stop-opacity:0.49803922"/>
    </linearGradient>
    <linearGradient gradientUnits="userSpaceOnUse" y2="210.69392" x2="21.425104" y1="210.69392" x1="252.12239" id="linearGradient918" xlink:href="#linearGradient916"/>
    <linearGradient id="linearGradient916">
      <stop id="stop912" offset="0" style="stop-color:#000000;stop-opacity:1;"/>
      <stop id="stop914" offset="1" style="stop-color:#000000;stop-opacity:0;"/>
    </linearGradient>
    <filter height="1.1432884" y="-0.071644206" width="1.1031834" x="-0.051591698" id="filter920" style="color-interpolation-filters:sRGB">
      <feGaussianBlur id="feGaussianBlur922" stdDeviation="3.1384947"/>
    </filter>
  </defs>
  
  <g id="layer1" style="display:inline" transform="translate(0, -25)">
    <g style="display:inline;enable-background:new" id="layer2">
      <path transform="matrix(0,0.5,-0.5,0,300.9973,13.002698)" style="color:#000000;display:inline;overflow:visible;visibility:visible;opacity:0.2;fill:#000000;fill-opacity:1;fill-rule:nonzero;stroke:none;stroke-width:2;marker:none;filter:url(#filter4380);enable-background:accumulate" d="m 189.84323,74 c -70.59344,0 -78.18921,7.250835 -77.84323,77.98706 v 146.01294 146.01294 c -0.34598,70.73623 7.24979,77.98706 77.84323,77.98706 h 196.31354 c 70.59344,0 77.84323,-7.24999 77.84323,-77.98706 v -146.01294 -146.01294 c 0,-70.737067 -7.24979,-77.98706 -77.84323,-77.98706 z" id="path4350"/>
    </g>
    
    <g style="display:inline" id="layer8">
      <path transform="matrix(0,0.5,-0.5,0,300.9973,13.002698)" id="rect4158-9" d="m 189.84323,74 c -70.59344,0 -78.18921,7.250835 -77.84323,77.98706 v 146.01294 146.01294 c -0.34598,70.73623 7.24979,77.98706 77.84323,77.98706 h 196.31354 c 70.59344,0 76.00668,-7.27384 77.84323,-77.98706 v -146.01294 -146.01294 c 0,-70.737067 -7.24979,-77.98706 -77.84323,-77.98706 z" style="color:#000000;display:inline;overflow:visible;visibility:visible;opacity:0.1;fill:#000000;fill-opacity:1;fill-rule:nonzero;stroke:none;stroke-width:2;marker:none;filter:url(#filter4346);enable-background:accumulate"/>
      <path id="rect4158-7" d="m 266.0025,105.8091 c 0,-36.098811 -3.69016,-39.983003 -39.68984,-39.806081 h -74.31016 -74.31016 c -35.99969,-0.176922 -39.68984,3.70727 -39.68984,39.806081 v 100.38732 c 0,36.09881 3.68973,39.80608 39.68984,39.80608 h 74.31016 74.31016 c 36.00011,0 39.68984,-3.70727 39.68984,-39.80608 z" style="color:#000000;display:inline;overflow:visible;visibility:visible;opacity:0.1;fill:#000000;fill-opacity:1;fill-rule:nonzero;stroke:none;stroke-width:1.02029;marker:none;enable-background:accumulate"/>
      <path id="rect4158" d="m 263.9973,205.07568 c 0,35.29673 -3.62542,39.09461 -38.99353,38.92162 h -73.00647 -73.00647 c -35.36812,0.17299 -38.99353,-3.62489 -38.99353,-38.92162 v -98.15676 c 0,-35.296716 3.625,-38.921616 38.99353,-38.921616 h 73.00647 73.00647 c 35.36853,0 38.99353,3.6249 38.99353,38.921616 z" style="color:#000000;display:inline;overflow:visible;visibility:visible;fill:#4d4d4d;fill-opacity:1;fill-rule:nonzero;stroke:none;stroke-width:1;marker:none;enable-background:accumulate"/>
      <path id="rect4158-78" d="m 78.990234,67.998047 c -35.36853,0 -38.992187,3.623202 -38.992187,38.919923 v 98.1582 c 0,0.0882 0.0019,0.16224 0.002,0.25 v -96.41015 c 0,-35.29672 3.625611,-38.921879 38.994141,-38.921879 h 73.005862 73.00586 c 35.28016,0 38.97394,3.621035 38.99219,38.671879 v -1.74805 c 0,-35.296721 -3.62561,-38.919923 -38.99414,-38.919923 h -73.00586 z" style="color:#000000;display:inline;overflow:visible;visibility:visible;opacity:0.3;fill:#ffffff;fill-opacity:1;fill-rule:nonzero;stroke:none;stroke-width:1;marker:none;enable-background:accumulate"/>
      <path id="rect4158-6" d="m 39.998047,203.07617 v 2 c 0,35.29673 3.624067,39.09487 38.992187,38.92188 h 73.007816 73.00586 c 35.36811,0.17299 38.99414,-3.62515 38.99414,-38.92188 v -2 c 0,35.29673 -3.62603,39.09487 -38.99414,38.92188 h -73.00586 -73.007816 c -35.36812,0.17299 -38.992187,-3.62515 -38.992187,-38.92188 z" style="color:#000000;display:inline;overflow:visible;visibility:visible;opacity:0.2;fill:#000000;fill-opacity:1;fill-rule:nonzero;stroke:none;stroke-width:1;marker:none;enable-background:accumulate"/>
      <path id="rect4158-1" d="m 39.998047,148 v 57.07617 c 0,35.29673 3.624067,39.09487 38.992187,38.92188 h 73.007816 73.00586 c 35.36811,0.17299 38.99414,-3.62515 38.99414,-38.92188 v -57.07617 z" style="color:#000000;display:inline;overflow:visible;visibility:visible;opacity:0.05;fill:#ffffff;fill-opacity:1;fill-rule:nonzero;stroke:none;stroke-width:1;marker:none;enable-background:accumulate"/>
    </g>
    
    <g style="display:inline" id="layer6">
      <path id="path910" d="m 110.85775,138 -4.93526,14.80579 50.10039,20.04015 -50.10039,20.04016 4.93526,14.80578 64.45752,-27.21872 v -15.25444 z m 64.36555,90.03114 v 15.10489 h 76.69918 v -15.10489 z" style="font-style:normal;font-variant:normal;font-weight:500;font-stretch:normal;font-size:299.107px;line-height:125%;font-family:Ubuntu;-inkscape-font-specification:'Ubuntu Medium';text-align:center;letter-spacing:0px;word-spacing:0px;writing-mode:lr-tb;text-anchor:middle;display:inline;opacity:0.5;fill:url(#linearGradient918);fill-opacity:1;stroke:none;stroke-width:1.91981;filter:url(#filter920);enable-background:new" transform="matrix(0.52016215,0,0,0.52160725,20.855193,22.100141)"/>
      <path id="path4212" d="m 78.519203,93.038725 -2.56714,7.722805 26.060317,10.45309 -26.060317,10.45309 2.56714,7.72281 33.528357,-14.19748 v -7.95683 z m 33.480517,46.960895 v 8 h 40 v -8 z" style="font-style:normal;font-variant:normal;font-weight:500;font-stretch:normal;font-size:299.107px;line-height:125%;font-family:Ubuntu;-inkscape-font-specification:'Ubuntu Medium';text-align:center;letter-spacing:0px;word-spacing:0px;writing-mode:lr-tb;text-anchor:middle;display:inline;fill:#f2f2f2;fill-opacity:1;stroke:none;stroke-width:1;enable-background:new"/>
      <path id="path4327" d="m 78.519343,93.038725 -2.56728,7.723255 0.3058,0.12225 2.26148,-6.80229 33.528107,14.1975 v -1.04322 z m 22.192227,18.697375 -24.759507,9.93194 0.3058,0.92096 25.754117,-10.33129 z m 11.28782,28.26358 v 1.04321 h 40.00033 v -1.04321 z" style="font-style:normal;font-variant:normal;font-weight:500;font-stretch:normal;font-size:299.107px;line-height:125%;font-family:Ubuntu;-inkscape-font-specification:'Ubuntu Medium';text-align:center;letter-spacing:0px;word-spacing:0px;writing-mode:lr-tb;text-anchor:middle;display:inline;fill:#ffffff;fill-opacity:1;stroke:none;stroke-width:1;enable-background:new"/>
    </g>
  </g>
</svg>
